<svg xmlns="http://www.w3.org/2000/svg" width="1230" height="1230" viewBox="0 0 1230 1230" version="1.1"><path d="M -0 615.001 L -0 1230.002 615.250 1229.751 L 1230.500 1229.500 1230.751 614.750 L 1231.002 0 615.501 0 L 0 0 -0 615.001 M 0.497 615.500 C 0.497 953.750, 0.611 1091.976, 0.750 922.668 C 0.889 753.360, 0.889 476.610, 0.750 307.668 C 0.611 138.726, 0.497 277.250, 0.497 615.500 M 414.250 98.733 L 126 99.003 126 124.955 L 126 150.907 429.250 151.280 C 658.916 151.563, 735.169 151.950, 743.500 152.873 C 771.005 155.921, 790.375 159.432, 810.500 165.016 C 814.900 166.236, 820.203 167.638, 822.284 168.130 C 824.365 168.623, 826.840 169.434, 827.784 169.933 C 828.728 170.432, 833.775 172.296, 839 174.074 C 844.225 175.853, 848.928 177.689, 849.450 178.154 C 849.973 178.619, 850.973 179, 851.673 179 C 853.871 179, 879.566 191.127, 893.528 198.753 C 902.084 203.427, 916 212.233, 916 212.975 C 916 213.362, 917.199 214.225, 918.665 214.893 C 922.397 216.594, 940 229.941, 940 231.070 C 940 231.582, 940.601 232, 941.337 232 C 942.072 232, 946.009 235.189, 950.087 239.087 C 954.164 242.985, 958.082 246.502, 958.794 246.902 C 961.167 248.235, 984 273.447, 984 274.733 C 984 275.430, 984.395 276, 984.879 276 C 987.548 276, 1004.927 302.622, 1012.296 318 C 1026.241 347.098, 1031.621 362.522, 1043.514 407.500 C 1047.552 422.770, 1050.574 444.652, 1052.081 469.527 C 1053.667 495.706, 1051.506 532.151, 1046.479 564 C 1044.804 574.607, 1038.755 602.387, 1037.114 607 C 1036.625 608.375, 1035.418 612.425, 1034.431 616 C 1032.506 622.977, 1023.588 647.965, 1022.015 650.790 C 1021.491 651.731, 1019.677 655.861, 1017.982 659.970 C 1011.552 675.563, 995.934 701.601, 983.476 717.500 C 974.428 729.046, 943.222 758.990, 924.013 774.557 C 913.609 782.988, 899.044 793, 897.182 793 C 896.532 793, 896 793.397, 896 793.882 C 896 794.953, 861.897 811.884, 853.500 814.982 C 850.200 816.199, 846.600 817.598, 845.500 818.090 C 842.046 819.636, 816.925 827.667, 807 830.398 C 792.745 834.320, 772.076 838.695, 749.612 842.546 C 731.583 845.636, 727.558 845.993, 710.750 845.996 L 692 846 692 824.455 L 692 802.909 722.250 803.119 C 753.083 803.333, 759.984 802.842, 780.500 798.974 C 790.153 797.155, 810.391 791.825, 814.500 790.021 C 815.600 789.538, 818.975 788.252, 822 787.165 C 837.986 781.417, 861.507 769.548, 876.042 759.893 C 879.265 757.752, 882.337 756, 882.868 756 C 883.399 756, 883.983 755.584, 884.167 755.076 C 884.350 754.568, 887.650 751.879, 891.500 749.101 C 899.385 743.411, 905.118 738.694, 912.585 731.750 C 915.395 729.138, 918.100 726.962, 918.597 726.916 C 919.634 726.820, 935.681 709.195, 944.352 698.630 C 950.824 690.744, 962.696 673.786, 968.246 664.500 C 972.362 657.613, 981 640.875, 981 639.786 C 981 639.384, 982.077 636.680, 983.393 633.777 C 987.055 625.704, 990.663 616.022, 992.462 609.444 C 1003.253 569.980, 1006.490 544.698, 1006.414 500.500 C 1006.321 446.189, 1000.503 408.129, 986.543 370.500 C 982.638 359.973, 969.204 332.275, 965.717 327.559 C 965.286 326.976, 962.136 322.367, 958.717 317.316 C 947.622 300.925, 940.787 292.787, 924 275.980 C 908.301 260.261, 896.038 250.026, 880.500 239.674 C 876.650 237.109, 872.956 234.558, 872.292 234.005 C 871.628 233.452, 870.787 233, 870.423 233 C 870.059 233, 867.056 231.356, 863.748 229.347 C 855.035 224.054, 849.963 221.557, 836.500 215.933 C 829.900 213.176, 823.600 210.517, 822.500 210.025 C 814.219 206.319, 789.041 199.787, 772.500 197.055 C 738.888 191.504, 742.976 191.616, 561.250 191.254 L 393 190.918 393 262.459 L 393 334 545.750 334.064 C 629.763 334.100, 706.375 334.493, 716 334.938 C 732.751 335.712, 734.023 335.920, 745.730 339.816 C 758.659 344.120, 760.784 344.983, 773.500 351.093 C 788.336 358.222, 806.309 370.035, 807.655 373.542 C 807.962 374.344, 808.807 375, 809.532 375 C 811.467 375, 825.008 390.260, 831.271 399.500 C 849.931 427.031, 856.989 457.154, 855.737 503.930 C 855.178 524.824, 854.442 531.420, 850.880 547.500 C 845.151 573.354, 834.144 596.324, 819.116 613.785 C 805.352 629.777, 789.506 639.948, 759.500 652.051 C 752.125 655.025, 738.050 658.508, 723.429 660.976 C 712.501 662.820, 706.990 662.990, 657.750 662.995 L 604 663 604 547.500 L 604 432 501.500 432 L 399 432 399 550 L 399 668 356.963 668 L 314.925 668 307.463 674.228 C 303.358 677.653, 300 680.803, 300 681.228 C 300 681.652, 322.257 682, 349.460 682 L 398.919 682 399.210 690.250 L 399.500 698.500 421.209 698.769 L 442.918 699.039 443.209 690.769 L 443.500 682.500 456.250 682.220 L 469 681.940 469 674.970 L 469 668 456 668 L 443 668 443 572 L 443 476 502 476 L 561 476 561 572 L 561 668 548.500 668 L 536 668 536 604 L 536 540 510.250 540.013 L 484.500 540.026 477.517 545.963 C 473.676 549.229, 470.376 552.373, 470.183 552.950 C 469.945 553.664, 477.695 554, 494.417 554 L 519 554 519 617.500 L 519 681 540 681 L 561 681 561 690.037 L 561 699.074 593.250 698.999 C 610.987 698.957, 626.513 698.940, 627.750 698.961 C 629.849 698.997, 630 699.437, 630 705.500 L 630 712 671.720 712 L 713.440 712 734.470 708.026 C 764.440 702.362, 776.371 699.117, 795.800 691.346 C 809.055 686.045, 824.572 677.941, 829.016 674 C 829.946 673.175, 833.289 670.487, 836.445 668.028 C 841.903 663.774, 853.488 651.743, 861.510 642 C 863.548 639.525, 865.955 636.734, 866.858 635.798 C 869.664 632.890, 871 631.116, 871.004 630.292 C 871.007 629.856, 872.694 627.219, 874.754 624.432 C 885.528 609.854, 895.491 585.965, 900.375 563 C 909.337 520.859, 908.292 465.078, 897.808 426 C 892.677 406.875, 886.951 392.940, 877.133 375.686 C 867.748 359.194, 849.143 338.769, 829.853 323.779 C 825.259 320.209, 820.375 316.705, 819 315.994 C 817.625 315.283, 816.275 314.427, 816 314.093 C 815.071 312.965, 795.556 303.224, 788 300.117 C 772.544 293.762, 754.808 289.402, 729.734 285.793 C 714.821 283.647, 711.646 283.589, 579 283.050 L 443.500 282.500 443.229 262.677 L 442.957 242.854 589.229 243.284 C 743.335 243.736, 746.154 243.816, 771.500 248.414 C 822.488 257.664, 872.662 286.872, 902.909 324.910 C 910.646 334.641, 923.500 353.829, 924.563 357.237 C 924.952 358.482, 925.561 359.725, 925.918 360 C 927.592 361.290, 936.040 379.597, 939.300 389 C 950.406 421.027, 958.152 475.885, 956.526 511 C 954.541 553.871, 945.221 592.226, 928.460 626.500 C 921.234 641.276, 911.126 658.388, 907.072 662.708 C 905.932 663.923, 905 665.208, 905 665.564 C 905 666.283, 899.279 673.927, 897.563 675.500 C 896.963 676.050, 895.721 677.676, 894.803 679.113 C 889.226 687.842, 867.446 707.895, 854.382 716.331 C 846.231 721.593, 825.932 732, 823.817 732 C 823.038 732, 821.972 732.395, 821.450 732.877 C 819.370 734.798, 794.870 743.006, 782.500 745.926 C 757.096 751.922, 742.761 752.952, 684.250 752.979 L 641 753 641 824.500 L 641 896 685.714 896 C 727.962 896, 731.506 895.859, 749.964 893.436 C 790.894 888.064, 828.370 879.895, 856 870.322 C 862.097 868.210, 873.205 863.572, 885.500 858.006 C 922.298 841.347, 958.704 816.990, 988.035 789.407 C 999.778 778.364, 1004.393 773.420, 1014.549 761 C 1018.372 756.325, 1021.837 752.350, 1022.250 752.167 C 1022.663 751.983, 1023 751.477, 1023 751.041 C 1023 750.282, 1035.818 730.797, 1037.965 728.292 C 1038.534 727.628, 1039 726.898, 1039 726.669 C 1039 726.441, 1043.217 719.273, 1048.371 710.740 C 1058.441 694.068, 1068.972 673.399, 1073.968 660.500 C 1075.672 656.100, 1077.432 651.825, 1077.878 651 C 1081.923 643.518, 1095.601 582.690, 1099.465 555 C 1104.223 520.898, 1105.371 481.018, 1102.474 450.500 C 1098.911 412.973, 1090.017 373.805, 1077.838 342 C 1075.626 336.225, 1073.152 329.925, 1072.341 328 C 1071.529 326.075, 1070.495 323.600, 1070.044 322.500 C 1067.626 316.610, 1057.739 297.046, 1052.104 287 C 1024.312 237.453, 984.596 194.877, 937 163.607 C 928.475 158.006, 919.025 152.136, 916 150.563 C 912.975 148.989, 910.009 147.323, 909.408 146.859 C 907.848 145.657, 896.641 140.028, 895.776 140.013 C 895.378 140.006, 891.778 138.389, 887.776 136.419 C 877.454 131.339, 849.055 121.062, 835.500 117.501 C 827.923 115.510, 811.627 111.520, 801.057 109.068 C 782.192 104.691, 738.217 99.448, 715 98.808 C 708.125 98.618, 572.787 98.585, 414.250 98.733 M 491.223 597.841 C 490.208 598.485, 490.003 609.063, 490.223 649.319 L 490.500 699.986 428.041 700.243 L 365.582 700.500 364.873 703.968 C 364.482 705.876, 364.591 708.235, 365.113 709.211 C 366.014 710.894, 372.788 710.998, 497.031 711.243 L 628 711.500 628 705.750 L 628 700 565.510 700 L 503.021 700 503.082 649.521 C 503.116 621.757, 502.860 598.582, 502.513 598.021 C 501.766 596.813, 493.062 596.674, 491.223 597.841 M 399 854.500 L 399 997 421 997 L 443 997 443 854.500 L 443 712 421 712 L 399 712 399 854.500 M 490 920.893 C 490 1110.454, 490.146 1129.842, 491.582 1130.393 C 492.452 1130.727, 495.136 1131, 497.547 1131 C 502.543 1131, 503.700 1129.620, 503.414 1124 C 503.316 1122.075, 503.183 1028.588, 503.118 916.250 L 503 712 496.500 712 L 490 712 490 920.893 M 561 854.500 L 561 997 582.500 997 L 604 997 604 854.500 L 604 712 582.500 712 L 561 712 561 854.500 M 519 931.083 C 519 1060.032, 519.345 1131.048, 519.971 1130.833 C 520.505 1130.650, 524.330 1127.648, 528.471 1124.162 L 536 1117.824 536 924.412 L 536 731 527.500 731 L 519 731 519 931.083" stroke="none" fill="none" fill-rule="evenodd"/><path d="M 414.250 98.733 L 126 99.003 126 124.955 L 126 150.907 429.250 151.280 C 658.916 151.563, 735.169 151.950, 743.500 152.873 C 771.005 155.921, 790.375 159.432, 810.500 165.016 C 814.900 166.236, 820.203 167.638, 822.284 168.130 C 824.365 168.623, 826.840 169.434, 827.784 169.933 C 828.728 170.432, 833.775 172.296, 839 174.074 C 844.225 175.853, 848.928 177.689, 849.450 178.154 C 849.973 178.619, 850.973 179, 851.673 179 C 853.871 179, 879.566 191.127, 893.528 198.753 C 902.084 203.427, 916 212.233, 916 212.975 C 916 213.362, 917.199 214.225, 918.665 214.893 C 922.397 216.594, 940 229.941, 940 231.070 C 940 231.582, 940.601 232, 941.337 232 C 942.072 232, 946.009 235.189, 950.087 239.087 C 954.164 242.985, 958.082 246.502, 958.794 246.902 C 961.167 248.235, 984 273.447, 984 274.733 C 984 275.430, 984.395 276, 984.879 276 C 987.548 276, 1004.927 302.622, 1012.296 318 C 1026.241 347.098, 1031.621 362.522, 1043.514 407.500 C 1047.552 422.770, 1050.574 444.652, 1052.081 469.527 C 1053.667 495.706, 1051.506 532.151, 1046.479 564 C 1044.804 574.607, 1038.755 602.387, 1037.114 607 C 1036.625 608.375, 1035.418 612.425, 1034.431 616 C 1032.506 622.977, 1023.588 647.965, 1022.015 650.790 C 1021.491 651.731, 1019.677 655.861, 1017.982 659.970 C 1011.552 675.563, 995.934 701.601, 983.476 717.500 C 974.428 729.046, 943.222 758.990, 924.013 774.557 C 913.609 782.988, 899.044 793, 897.182 793 C 896.532 793, 896 793.397, 896 793.882 C 896 794.953, 861.897 811.884, 853.500 814.982 C 850.200 816.199, 846.600 817.598, 845.500 818.090 C 842.046 819.636, 816.925 827.667, 807 830.398 C 792.745 834.320, 772.076 838.695, 749.612 842.546 C 731.583 845.636, 727.558 845.993, 710.750 845.996 L 692 846 692 824.455 L 692 802.909 722.250 803.119 C 753.083 803.333, 759.984 802.842, 780.500 798.974 C 790.153 797.155, 810.391 791.825, 814.500 790.021 C 815.600 789.538, 818.975 788.252, 822 787.165 C 837.986 781.417, 861.507 769.548, 876.042 759.893 C 879.265 757.752, 882.337 756, 882.868 756 C 883.399 756, 883.983 755.584, 884.167 755.076 C 884.350 754.568, 887.650 751.879, 891.500 749.101 C 899.385 743.411, 905.118 738.694, 912.585 731.750 C 915.395 729.138, 918.100 726.962, 918.597 726.916 C 919.634 726.820, 935.681 709.195, 944.352 698.630 C 950.824 690.744, 962.696 673.786, 968.246 664.500 C 972.362 657.613, 981 640.875, 981 639.786 C 981 639.384, 982.077 636.680, 983.393 633.777 C 987.055 625.704, 990.663 616.022, 992.462 609.444 C 1003.253 569.980, 1006.490 544.698, 1006.414 500.500 C 1006.321 446.189, 1000.503 408.129, 986.543 370.500 C 982.638 359.973, 969.204 332.275, 965.717 327.559 C 965.286 326.976, 962.136 322.367, 958.717 317.316 C 947.622 300.925, 940.787 292.787, 924 275.980 C 908.301 260.261, 896.038 250.026, 880.500 239.674 C 876.650 237.109, 872.956 234.558, 872.292 234.005 C 871.628 233.452, 870.787 233, 870.423 233 C 870.059 233, 867.056 231.356, 863.748 229.347 C 855.035 224.054, 849.963 221.557, 836.500 215.933 C 829.900 213.176, 823.600 210.517, 822.500 210.025 C 814.219 206.319, 789.041 199.787, 772.500 197.055 C 738.888 191.504, 742.976 191.616, 561.250 191.254 L 393 190.918 393 262.459 L 393 334 545.750 334.064 C 629.763 334.100, 706.375 334.493, 716 334.938 C 732.751 335.712, 734.023 335.920, 745.730 339.816 C 758.659 344.120, 760.784 344.983, 773.500 351.093 C 788.336 358.222, 806.309 370.035, 807.655 373.542 C 807.962 374.344, 808.807 375, 809.532 375 C 811.467 375, 825.008 390.260, 831.271 399.500 C 849.931 427.031, 856.989 457.154, 855.737 503.930 C 855.178 524.824, 854.442 531.420, 850.880 547.500 C 845.151 573.354, 834.144 596.324, 819.116 613.785 C 805.352 629.777, 789.506 639.948, 759.500 652.051 C 752.125 655.025, 738.050 658.508, 723.429 660.976 C 712.501 662.820, 706.990 662.990, 657.750 662.995 L 604 663 604 547.500 L 604 432 501.500 432 L 399 432 399 550 L 399 668 356.963 668 L 314.925 668 307.463 674.228 C 303.358 677.653, 300 680.803, 300 681.228 C 300 681.652, 322.257 682, 349.460 682 L 398.919 682 399.210 690.250 L 399.500 698.500 421.209 698.769 L 442.918 699.039 443.209 690.769 L 443.500 682.500 456.250 682.220 L 469 681.940 469 674.970 L 469 668 456 668 L 443 668 443 572 L 443 476 502 476 L 561 476 561 572 L 561 668 548.500 668 L 536 668 536 604 L 536 540 510.250 540.013 L 484.500 540.026 477.517 545.963 C 473.676 549.229, 470.376 552.373, 470.183 552.950 C 469.945 553.664, 477.695 554, 494.417 554 L 519 554 519 617.500 L 519 681 540 681 L 561 681 561 690.037 L 561 699.074 593.250 698.999 C 610.987 698.957, 626.513 698.940, 627.750 698.961 C 629.849 698.997, 630 699.437, 630 705.500 L 630 712 671.720 712 L 713.440 712 734.470 708.026 C 764.440 702.362, 776.371 699.117, 795.800 691.346 C 809.055 686.045, 824.572 677.941, 829.016 674 C 829.946 673.175, 833.289 670.487, 836.445 668.028 C 841.903 663.774, 853.488 651.743, 861.510 642 C 863.548 639.525, 865.955 636.734, 866.858 635.798 C 869.664 632.890, 871 631.116, 871.004 630.292 C 871.007 629.856, 872.694 627.219, 874.754 624.432 C 885.528 609.854, 895.491 585.965, 900.375 563 C 909.337 520.859, 908.292 465.078, 897.808 426 C 892.677 406.875, 886.951 392.940, 877.133 375.686 C 867.748 359.194, 849.143 338.769, 829.853 323.779 C 825.259 320.209, 820.375 316.705, 819 315.994 C 817.625 315.283, 816.275 314.427, 816 314.093 C 815.071 312.965, 795.556 303.224, 788 300.117 C 772.544 293.762, 754.808 289.402, 729.734 285.793 C 714.821 283.647, 711.646 283.589, 579 283.050 L 443.500 282.500 443.229 262.677 L 442.957 242.854 589.229 243.284 C 743.335 243.736, 746.154 243.816, 771.500 248.414 C 822.488 257.664, 872.662 286.872, 902.909 324.910 C 910.646 334.641, 923.500 353.829, 924.563 357.237 C 924.952 358.482, 925.561 359.725, 925.918 360 C 927.592 361.290, 936.040 379.597, 939.300 389 C 950.406 421.027, 958.152 475.885, 956.526 511 C 954.541 553.871, 945.221 592.226, 928.460 626.500 C 921.234 641.276, 911.126 658.388, 907.072 662.708 C 905.932 663.923, 905 665.208, 905 665.564 C 905 666.283, 899.279 673.927, 897.563 675.500 C 896.963 676.050, 895.721 677.676, 894.803 679.113 C 889.226 687.842, 867.446 707.895, 854.382 716.331 C 846.231 721.593, 825.932 732, 823.817 732 C 823.038 732, 821.972 732.395, 821.450 732.877 C 819.370 734.798, 794.870 743.006, 782.500 745.926 C 757.096 751.922, 742.761 752.952, 684.250 752.979 L 641 753 641 824.500 L 641 896 685.714 896 C 727.962 896, 731.506 895.859, 749.964 893.436 C 790.894 888.064, 828.370 879.895, 856 870.322 C 862.097 868.210, 873.205 863.572, 885.500 858.006 C 922.298 841.347, 958.704 816.990, 988.035 789.407 C 999.778 778.364, 1004.393 773.420, 1014.549 761 C 1018.372 756.325, 1021.837 752.350, 1022.250 752.167 C 1022.663 751.983, 1023 751.477, 1023 751.041 C 1023 750.282, 1035.818 730.797, 1037.965 728.292 C 1038.534 727.628, 1039 726.898, 1039 726.669 C 1039 726.441, 1043.217 719.273, 1048.371 710.740 C 1058.441 694.068, 1068.972 673.399, 1073.968 660.500 C 1075.672 656.100, 1077.432 651.825, 1077.878 651 C 1081.923 643.518, 1095.601 582.690, 1099.465 555 C 1104.223 520.898, 1105.371 481.018, 1102.474 450.500 C 1098.911 412.973, 1090.017 373.805, 1077.838 342 C 1075.626 336.225, 1073.152 329.925, 1072.341 328 C 1071.529 326.075, 1070.495 323.600, 1070.044 322.500 C 1067.626 316.610, 1057.739 297.046, 1052.104 287 C 1024.312 237.453, 984.596 194.877, 937 163.607 C 928.475 158.006, 919.025 152.136, 916 150.563 C 912.975 148.989, 910.009 147.323, 909.408 146.859 C 907.848 145.657, 896.641 140.028, 895.776 140.013 C 895.378 140.006, 891.778 138.389, 887.776 136.419 C 877.454 131.339, 849.055 121.062, 835.500 117.501 C 827.923 115.510, 811.627 111.520, 801.057 109.068 C 782.192 104.691, 738.217 99.448, 715 98.808 C 708.125 98.618, 572.787 98.585, 414.250 98.733 M 399 854.500 L 399 997 421 997 L 443 997 443 854.500 L 443 712 421 712 L 399 712 399 854.500 M 561 854.500 L 561 997 582.500 997 L 604 997 604 854.500 L 604 712 582.500 712 L 561 712 561 854.500 M 519 931.083 C 519 1060.032, 519.345 1131.048, 519.971 1130.833 C 520.505 1130.650, 524.330 1127.648, 528.471 1124.162 L 536 1117.824 536 924.412 L 536 731 527.500 731 L 519 731 519 931.083" stroke="none" fill="#ffffff" fill-rule="evenodd"/><path d="M 491.223 597.841 C 490.208 598.485, 490.003 609.063, 490.223 649.319 L 490.500 699.986 428.041 700.243 L 365.582 700.500 364.873 703.968 C 364.482 705.876, 364.591 708.235, 365.113 709.211 C 366.014 710.894, 372.788 710.998, 497.031 711.243 L 628 711.500 628 705.750 L 628 700 565.510 700 L 503.021 700 503.082 649.521 C 503.116 621.757, 502.860 598.582, 502.513 598.021 C 501.766 596.813, 493.062 596.674, 491.223 597.841 M 490 920.893 C 490 1110.454, 490.146 1129.842, 491.582 1130.393 C 492.452 1130.727, 495.136 1131, 497.547 1131 C 502.543 1131, 503.700 1129.620, 503.414 1124 C 503.316 1122.075, 503.183 1028.588, 503.118 916.250 L 503 712 496.500 712 L 490 712 490 920.893" stroke="none" fill="#fbdb0c" fill-rule="evenodd"/></svg>