<?xml version="1.0" encoding="UTF-8"?>
<svg version="1.1" xmlns="http://www.w3.org/2000/svg" width="1230" height="1230">
<path d="M0 0 C0.97940555 -0.00109254 1.9588111 -0.00218509 2.9678956 -0.00331074 C3.85615147 -0.00456336 4.74440733 -0.00581599 5.65958004 -0.00710657 C34.3160851 0.14116617 64.01603495 4.18788924 92.03277532 10.00517267 C93.07562688 10.21899591 94.11847845 10.43281915 95.19293157 10.65312189 C128.45326413 17.54345687 160.22677768 27.66965773 191.03277532 42.00517267 C191.92625677 42.42025079 192.81973821 42.83532892 193.74029485 43.26298517 C218.8798207 55.07318106 241.89865192 70.63887646 263.16119329 88.44218439 C264.91184907 89.90418521 266.67561473 91.34855689 268.44293157 92.79032892 C282.02435964 104.00364187 295.24544158 116.5315098 306.05230657 130.46611017 C307.92734526 132.87000593 309.89264118 135.17163586 311.89581243 137.46903986 C323.83591458 151.23136848 333.8714579 166.28586999 343.03277532 182.00517267 C343.43480169 182.69353204 343.83682805 183.38189142 344.25103704 184.09111017 C349.92285505 193.85833162 355.16516211 203.81396918 360.03277532 214.00517267 C360.38839544 214.74686701 360.74401555 215.48856134 361.11041204 216.25273126 C387.00975468 270.73854481 399.23723563 331.77239621 399.28277532 391.94267267 C399.28378744 393.16897897 399.28378744 393.16897897 399.28482 394.42005914 C399.17101334 482.50109545 375.1202597 568.7408562 288.22027532 687.00517267 C283.95629633 691.17725556 279.5747677 695.14132498 275.03277532 699.00517267 C273.57871282 700.29294611 273.57871282 700.29294611 272.09527532 701.60673517 C251.56156667 719.70263799 228.7129389 734.41330061 205.03277532 748.00517267 C204.35778997 748.39446954 203.68280462 748.78376642 202.98736516 749.18486017 C157.29574072 775.30137288 105.04552064 787.27178541 53.42822782 794.65799612 C51.80420256 794.89336855 50.18093226 795.13399898 48.5583891 795.37938017 C34.17391655 797.54460285 20.19650102 798.42075127 5.66168157 798.29814142 C3.85825833 798.2937089 2.05483116 798.29066179 0.25140325 798.28898615 C-6.30069977 798.27350841 -12.85271919 798.23162824 -19.40472468 798.19267267 C-34.11034968 798.13079767 -48.81597468 798.06892267 -63.96722468 798.00517267 C-63.96722468 750.81517267 -63.96722468 703.62517267 -63.96722468 655.00517267 C-20.15472468 654.63017267 -20.15472468 654.63017267 -6.50311335 654.52714533 C57.92499877 653.95114175 126.43241123 645.290982 174.03277532 597.00517267 C174.86035345 596.21239923 175.68793157 595.41962579 176.54058782 594.60282892 C183.78231633 587.58807996 190.01402643 580.08441397 196.03277532 572.00517267 C196.46477239 571.42863947 196.89676946 570.85210626 197.34185735 570.25810236 C203.84905621 561.5243023 209.68445739 552.49103296 215.03277532 543.00517267 C215.46203313 542.24913751 215.89129095 541.49310236 216.33355657 540.71415704 C232.09490082 512.66623175 242.15558953 481.77461897 247.03277532 450.00517267 C247.18230657 449.0673797 247.33183782 448.12958673 247.48590032 447.16337579 C252.25897974 416.03549146 251.76282567 383.09816321 247.03277532 352.00517267 C246.85585149 350.82358576 246.67892766 349.64199884 246.49664251 348.42460626 C240.22486705 307.50641665 229.2861038 269.52170926 204.03277532 236.00517267 C203.59787786 235.41768244 203.1629804 234.8301922 202.71490423 234.22489923 C197.46486473 227.16135109 191.8277844 220.52166216 185.84527532 214.06767267 C185.28735296 213.46495538 184.72943059 212.8622381 184.15460149 212.24125665 C148.92319271 174.92251994 98.10042007 154.1955672 47.90777532 148.31767267 C46.41975408 148.1384527 46.41975408 148.1384527 44.9016718 147.95561212 C23.46251454 145.64379232 1.73950182 145.8499094 -19.79583796 145.7998504 C-22.46959206 145.79023997 -25.1433426 145.78026773 -27.81709345 145.76985162 C-33.51282248 145.74836588 -39.20855393 145.73012362 -44.90430125 145.71424669 C-53.13884325 145.69128791 -61.37336178 145.66318514 -69.60788352 145.63392741 C-82.97602581 145.58656481 -96.34417785 145.54321844 -109.71234187 145.50248712 C-122.6788209 145.46297089 -135.64529137 145.4215076 -148.61175593 145.37748712 C-149.41440092 145.37476285 -150.21704591 145.37203858 -151.04401348 145.36923175 C-155.0716604 145.35554963 -159.09930719 145.34182988 -163.12695392 145.32809144 C-196.40702649 145.21462044 -229.68711739 145.10795817 -262.96722468 145.00517267 C-262.96722468 158.20517267 -262.96722468 171.40517267 -262.96722468 185.00517267 C-258.12268862 184.991849 -258.12268862 184.991849 -253.18028315 184.97825617 C-223.40633756 184.89827323 -193.63241946 184.83875623 -163.85839185 184.80091135 C-159.93788215 184.79590989 -156.01737269 184.79073247 -152.09686335 184.78544611 C-150.9263512 184.78387224 -150.9263512 184.78387224 -149.73219234 184.78226659 C-137.17840346 184.76496948 -124.62468956 184.73349246 -112.07094483 184.69656149 C-99.14230863 184.65885136 -86.21371108 184.63687417 -73.28502216 184.62881869 C-66.0431107 184.62387325 -58.80135557 184.61210165 -51.5595003 184.58225244 C14.34844798 184.31869883 83.6503898 187.01996317 135.03277532 234.00517267 C136.280102 235.11983339 137.52750101 236.23441318 138.77496282 237.34892267 C179.22468475 273.89631626 197.14025392 324.84711228 200.85626165 378.32548517 C201.23671948 386.25668908 201.27755348 394.19102227 201.28277532 402.13017267 C201.28378744 403.51979212 201.28378744 403.51979212 201.28482 404.93748468 C201.22268117 458.88211464 188.24662178 508.07969112 152.03277532 549.00517267 C151.27351751 549.87528986 150.5142597 550.74540704 149.73199407 551.64189142 C147.53279545 554.1301499 145.29655203 556.57556564 143.03277532 559.00517267 C142.20390813 559.89978204 141.37504095 560.79439142 140.52105657 561.71611017 C133.65732574 568.87042231 126.35561504 574.65194331 118.03277532 580.00517267 C117.44464055 580.38383478 116.85650579 580.76249689 116.25054876 581.15263361 C95.76492597 594.05264621 72.47914594 600.93971661 49.12020818 606.50229257 C47.15195428 606.97646146 45.18795931 607.46820972 43.22430364 607.96107477 C12.99758064 615.39462944 -16.78803655 614.80452523 -47.77972468 614.44267267 C-65.33159968 614.29829767 -82.88347468 614.15392267 -100.96722468 614.00517267 C-100.96722468 674.72517267 -100.96722468 735.44517267 -100.96722468 798.00517267 C-115.15722468 798.00517267 -129.34722468 798.00517267 -143.96722468 798.00517267 C-143.96722468 737.28517267 -143.96722468 676.56517267 -143.96722468 614.00517267 C-163.10722468 614.00517267 -182.24722468 614.00517267 -201.96722468 614.00517267 C-201.96722468 718.94517267 -201.96722468 823.88517267 -201.96722468 932.00517267 C-206.25722468 932.00517267 -210.54722468 932.00517267 -214.96722468 932.00517267 C-214.96722468 827.06517267 -214.96722468 722.12517267 -214.96722468 614.00517267 C-230.80722468 614.00517267 -246.64722468 614.00517267 -262.96722468 614.00517267 C-262.96722468 674.72517267 -262.96722468 735.44517267 -262.96722468 798.00517267 C-277.48722468 798.00517267 -292.00722468 798.00517267 -306.96722468 798.00517267 C-306.96722468 737.28517267 -306.96722468 676.56517267 -306.96722468 614.00517267 C-318.51722468 614.00517267 -330.06722468 614.00517267 -341.96722468 614.00517267 C-341.96722468 609.71517267 -341.96722468 605.42517267 -341.96722468 601.00517267 C-330.41722468 601.00517267 -318.86722468 601.00517267 -306.96722468 601.00517267 C-306.96722468 595.06517267 -306.96722468 589.12517267 -306.96722468 583.00517267 C-339.30722468 583.00517267 -371.64722468 583.00517267 -404.96722468 583.00517267 C-399.96722468 577.00517267 -399.96722468 577.00517267 -390.96722468 570.00517267 C-363.24722468 570.00517267 -335.52722468 570.00517267 -306.96722468 570.00517267 C-306.96722468 491.79517267 -306.96722468 413.58517267 -306.96722468 333.00517267 C-292.44722468 333.00517267 -277.92722468 333.00517267 -262.96722468 333.00517267 C-262.96722468 411.21517267 -262.96722468 489.42517267 -262.96722468 570.00517267 C-254.05722468 570.00517267 -245.14722468 570.00517267 -235.96722468 570.00517267 C-235.96722468 574.29517267 -235.96722468 578.58517267 -235.96722468 583.00517267 C-244.87722468 583.00517267 -253.78722468 583.00517267 -262.96722468 583.00517267 C-262.96722468 588.94517267 -262.96722468 594.88517267 -262.96722468 601.00517267 C-247.12722468 601.00517267 -231.28722468 601.00517267 -214.96722468 601.00517267 C-214.96722468 567.01517267 -214.96722468 533.02517267 -214.96722468 498.00517267 C-210.67722468 498.00517267 -206.38722468 498.00517267 -201.96722468 498.00517267 C-201.96722468 531.99517267 -201.96722468 565.98517267 -201.96722468 601.00517267 C-182.82722468 601.00517267 -163.68722468 601.00517267 -143.96722468 601.00517267 C-143.96722468 595.06517267 -143.96722468 589.12517267 -143.96722468 583.00517267 C-158.15722468 583.00517267 -172.34722468 583.00517267 -186.96722468 583.00517267 C-186.96722468 540.76517267 -186.96722468 498.52517267 -186.96722468 455.00517267 C-203.13722468 455.00517267 -219.30722468 455.00517267 -235.96722468 455.00517267 C-231.46413932 450.50208731 -226.72696967 446.23605711 -221.96722468 442.00517267 C-204.47722468 442.00517267 -186.98722468 442.00517267 -168.96722468 442.00517267 C-168.96722468 484.24517267 -168.96722468 526.48517267 -168.96722468 570.00517267 C-160.71722468 570.00517267 -152.46722468 570.00517267 -143.96722468 570.00517267 C-143.96722468 492.12517267 -143.96722468 414.24517267 -143.96722468 334.00517267 C-129.77722468 334.00517267 -115.58722468 334.00517267 -100.96722468 334.00517267 C-100.96722468 410.23517267 -100.96722468 486.46517267 -100.96722468 565.00517267 C-27.46802655 567.51452898 -27.46802655 567.51452898 43.84527532 556.75517267 C44.88095647 556.45852716 45.91663762 556.16188165 46.98370305 555.85624689 C56.41280005 553.05893111 65.28030789 549.47663191 74.03277532 545.00517267 C74.72693548 544.65196954 75.42109563 544.29876642 76.13629095 543.93486017 C108.29724839 527.30091381 129.79785713 500.16035258 140.81158391 465.68412775 C148.39821416 440.71751514 150.7482166 415.04101385 150.03277532 389.00517267 C150.01488958 388.32632013 149.99700384 387.64746759 149.9785761 386.94804376 C148.81982048 348.08321119 138.37351759 312.5537389 111.03277532 284.00517267 C110.22840032 283.15954767 109.42402532 282.31392267 108.59527532 281.44267267 C107.74965032 280.63829767 106.90402532 279.83392267 106.03277532 279.00517267 C105.37406438 278.36321954 104.71535345 277.72126642 104.03668157 277.05986017 C84.40207127 258.55367575 59.82984138 248.7412739 34.58746282 240.42314142 C33.82933294 240.17330499 33.07120305 239.92346857 32.29009954 239.66606134 C28.03326655 238.41976598 23.95632259 237.86135032 19.527903 237.69542688 C18.44416896 237.65443605 17.36043492 237.61344521 16.24386046 237.57121223 C14.48508567 237.51344635 14.48508567 237.51344635 12.69078008 237.45451349 C11.45134765 237.41247687 10.21191521 237.37044024 8.93492422 237.32712978 C-4.81686923 236.89626321 -18.56875156 236.83751917 -32.32618686 236.81922311 C-36.0960378 236.81313403 -39.86587273 236.80150524 -43.63571223 236.79058832 C-50.13135078 236.77245648 -56.62698986 236.75752775 -63.12264117 236.74481195 C-72.51476763 236.72633333 -81.90687071 236.70168036 -91.29897833 236.67543805 C-106.54719164 236.63290387 -121.79541131 236.59371756 -137.0436407 236.55741876 C-137.95164431 236.55525596 -138.85964792 236.55309316 -139.79516679 236.55086482 C-148.10342943 236.53110811 -156.41169261 236.51158493 -164.719956 236.49214929 C-170.2835802 236.4791325 -175.84720427 236.46606034 -181.4108282 236.45292658 C-182.32588817 236.45076771 -183.24094814 236.44860884 -184.1837372 236.44638455 C-199.41607562 236.41032938 -214.64840144 236.37040296 -229.88072243 236.32762378 C-239.25970899 236.30146794 -248.63869171 236.27880914 -258.01769722 236.2606402 C-264.4206611 236.2480131 -270.82360992 236.23190242 -277.22655831 236.21299106 C-280.92298873 236.2022001 -284.61940449 236.19309305 -288.31584796 236.1882953 C-292.31210389 236.18307835 -296.30831406 236.17027002 -300.30455073 236.15666193 C-301.48484156 236.15636594 -302.66513239 236.15606995 -303.88118961 236.155765 C-304.94228232 236.15090725 -306.00337503 236.14604951 -307.09662207 236.14104456 C-308.48128842 236.1378706 -308.48128842 236.1378706 -309.89392783 236.13463253 C-311.96722468 236.00517267 -311.96722468 236.00517267 -312.96722468 235.00517267 C-313.06584506 233.18520761 -313.09354602 231.36137701 -313.09420832 229.53874201 C-313.09702815 228.35241678 -313.09984797 227.16609155 -313.10275324 225.94381708 C-313.0997169 223.97388536 -313.0997169 223.97388536 -313.09661921 221.96415704 C-313.09797323 220.5764867 -313.09975316 219.18881671 -313.10192927 217.8011474 C-313.10650356 214.02232546 -313.10471406 210.24353071 -313.10155018 206.46470827 C-313.09902656 202.51868229 -313.10136413 198.5726587 -313.10293635 194.62663263 C-313.10475804 187.99873936 -313.10235175 181.37085722 -313.09759577 174.74296564 C-313.09215315 167.06934064 -313.09391581 159.3957422 -313.09942218 151.72211784 C-313.10395333 145.14548874 -313.10460385 138.56886766 -313.10198351 131.99223751 C-313.10042075 128.05914144 -313.10022695 124.12605787 -313.10352 120.19296259 C-313.10639874 116.49615918 -313.10442297 112.79939017 -313.09862574 109.1025905 C-313.09666252 107.09057024 -313.09965203 105.07854709 -313.10275324 103.06652826 C-313.09852351 101.28704042 -313.09852351 101.28704042 -313.09420832 99.47160333 C-313.0938313 98.43404146 -313.09345427 97.39647959 -313.09306582 96.32747644 C-312.96722468 94.00517267 -312.96722468 94.00517267 -311.96722468 93.00517267 C-310.27730172 92.90520861 -308.58317019 92.87593556 -306.89029463 92.8737449 C-305.78311798 92.86990376 -304.67594132 92.86606261 -303.53521385 92.86210507 C-302.30337999 92.86297155 -301.07154614 92.86383804 -299.80238398 92.86473078 C-298.50527009 92.86175965 -297.2081562 92.85878853 -295.87173583 92.85572737 C-292.25324468 92.84762685 -288.63477333 92.84586606 -285.01627418 92.84512991 C-281.11845425 92.84328399 -277.22064471 92.83573771 -273.32283076 92.82899469 C-264.77929007 92.8153765 -256.23575406 92.8093777 -247.69220432 92.80498403 C-242.34314889 92.80222043 -236.99409528 92.79798217 -231.64504107 92.79347986 C-216.80365956 92.78126934 -201.96227951 92.77098224 -187.12089308 92.76760477 C-185.69377574 92.76727542 -185.69377574 92.76727542 -184.23782775 92.76693942 C-183.28420016 92.76672114 -182.33057256 92.76650286 -181.34804716 92.76627797 C-179.41584917 92.76583452 -177.48365118 92.76538795 -175.5514532 92.76493829 C-174.59302731 92.76471687 -173.63460142 92.76449544 -172.64713232 92.7642673 C-157.21138053 92.7603424 -141.77567662 92.74296779 -126.33994323 92.71957877 C-110.44949183 92.69569841 -94.55906421 92.68339496 -78.66859462 92.68223685 C-69.76499668 92.68132794 -60.86146127 92.67569525 -51.95788058 92.65741724 C42.16839019 92.47204406 133.86924345 98.84593732 206.80621282 165.96220392 C208.84705458 167.83476575 210.92741229 169.64346801 213.03277532 171.44267267 C220.60573371 178.05179999 227.60443896 185.28340847 234.03277532 193.00517267 C234.86937688 193.99130548 235.70597845 194.97743829 236.56793157 195.99345392 C272.04130713 238.54436178 291.1730499 288.47133488 298.28277532 343.00517267 C298.44608343 344.25628839 298.60939153 345.50740412 298.77764837 346.79643244 C301.03108279 365.03400423 301.27398516 383.14983063 301.28277532 401.50517267 C301.28378744 403.40568384 301.28378744 403.40568384 301.28482 405.34458917 C301.2208081 481.09518657 282.2909632 550.97996634 232.03277532 609.00517267 C231.50941595 609.61755792 230.98605657 610.22994318 230.44683782 610.86088556 C220.06821464 622.90431369 208.69132128 634.36505793 196.03277532 644.00517267 C195.03375188 644.79794611 194.03472845 645.59071954 193.00543157 646.40751642 C140.1807429 688.17813487 76.98006977 707.64926084 10.09527532 705.63017267 C7.8394462 705.57170205 5.58358633 705.51440539 3.3276972 705.45829767 C-2.10457585 705.32283945 -7.53538349 705.16361029 -12.96722468 705.00517267 C-12.96722468 719.19517267 -12.96722468 733.38517267 -12.96722468 748.00517267 C52.61178374 748.00517267 120.79244179 732.85718628 179.03277532 702.00517267 C179.77688665 701.61184747 180.52099798 701.21852228 181.28765813 700.81327814 C190.70193717 695.80055653 199.60309914 690.57831303 208.03277532 684.00517267 C209.04340032 683.24720392 210.05402532 682.48923517 211.09527532 681.70829767 C229.36979099 667.97260497 246.01921338 652.28964073 262.03277532 636.00517267 C266.58151178 631.42149968 266.58151178 631.42149968 268.84918157 629.32939142 C318.06542129 583.19604815 336.69971466 502.96779424 344.03277532 439.00517267 C344.15136907 438.05094415 344.26996282 437.09671564 344.39215032 436.11357111 C348.31716005 404.0710066 347.73553669 369.92551886 343.03277532 338.00517267 C342.87712102 336.92139337 342.72146673 335.83761408 342.56109563 334.72099298 C333.57620947 274.66034674 310.97642734 214.10499041 271.03277532 168.00517267 C270.49781438 167.38118585 269.96285345 166.75719904 269.41168157 166.11430353 C265.21002781 161.24932436 260.83052833 156.60988775 256.28277532 152.06767267 C255.58249212 151.36819513 254.88220891 150.66871759 254.16070501 149.94804376 C249.51566627 145.35736413 244.78379268 141.09102948 239.64215032 137.05986017 C236.8632848 134.87171157 234.20813944 132.56840187 231.53277532 130.25517267 C181.852441 88.85489407 116.66887373 64.91663119 53.03277532 57.00517267 C52.13671575 56.8933465 51.24065618 56.78152033 50.31744329 56.66630548 C16.01074991 52.58324868 -19.11146221 53.84064411 -53.59067843 53.80661573 C-60.58054091 53.79951465 -67.57039059 53.78672784 -74.56024441 53.77384603 C-87.45179114 53.75023901 -100.34334079 53.73095114 -113.23489817 53.71424669 C-125.97323178 53.69772623 -138.71156 53.67921125 -151.44988688 53.65811342 C-152.24608548 53.65679581 -153.04228408 53.65547821 -153.8626099 53.65412067 C-157.90717123 53.64741729 -161.95173249 53.64067905 -165.99629373 53.63392741 C-194.53949593 53.58634231 -223.08270319 53.54310706 -251.62591609 53.50248712 C-279.33099795 53.46304983 -307.03607564 53.42160662 -334.74115046 53.37748712 C-335.59725478 53.37612459 -336.45335909 53.37476206 -337.33540596 53.37335825 C-345.93385731 53.35967122 -354.53230858 53.34594384 -363.13075982 53.3321869 C-380.64207415 53.30417092 -398.15338891 53.27642405 -415.66470393 53.24884027 C-416.46959769 53.24757207 -417.27449145 53.24630387 -418.10377593 53.24499725 C-471.72491878 53.16054203 -525.34607126 53.0825741 -578.96722468 53.00517267 C-578.96722468 35.84517267 -578.96722468 18.68517267 -578.96722468 1.00517267 C-524.20842045 0.90978241 -469.4496162 0.81440697 -414.69081172 0.71916193 C-413.88032152 0.71775219 -413.06983132 0.71634245 -412.23478082 0.71489 C-394.62050576 0.6842525 -377.00623069 0.65361926 -359.39195562 0.6229904 C-350.75387799 0.60796992 -342.11580036 0.59294849 -333.47772273 0.57792658 C-332.61813169 0.57643173 -331.75854064 0.57493689 -330.87290139 0.57339675 C-303.01274664 0.52494705 -275.15259201 0.47643528 -247.29243743 0.42789132 C-218.66172365 0.37800505 -190.03100977 0.32818142 -161.40029575 0.27843657 C-157.35610059 0.27140989 -153.31190544 0.2643825 -149.26771029 0.25735468 C-148.47175727 0.25597153 -147.67580424 0.25458838 -146.85573143 0.25316331 C-134.04480322 0.23089955 -121.23387513 0.20856979 -108.42294708 0.18621533 C-95.54261154 0.16374116 -82.66227588 0.14133658 -69.78194009 0.11900288 C-62.13020374 0.10573314 -54.47846748 0.09241018 -46.82673136 0.07901075 C-41.11120949 0.06900782 -35.39568746 0.05910482 -29.68016535 0.04924047 C-27.36908312 0.04523625 -25.05800095 0.04119969 -22.74691884 0.03712749 C-19.60339813 0.03159325 -16.45987723 0.02617723 -13.31635626 0.02079004 C-11.97354753 0.01838352 -11.97354753 0.01838352 -10.60361134 0.01592839 C-7.06907485 0.00997042 -3.53453616 0.00616165 0 0 Z " fill="#FEFEFE" transform="translate(701.9672246798873,118.99482733011246)"/>
<path d="M0 0 C5.28 0 10.56 0 16 0 C17.79125531 1.79125531 17.13198247 4.46587237 17.13701439 6.88471508 C17.1446262 8.81543591 17.1446262 8.81543591 17.15239179 10.7851612 C17.15299356 12.23227763 17.15349261 13.67939412 17.15390015 15.12651062 C17.15791206 16.6492748 17.16234982 18.17203791 17.1671797 19.69479972 C17.17918161 23.89953823 17.18480201 28.10426524 17.18936086 32.30901754 C17.19530337 36.83609041 17.20691664 41.36314945 17.21765137 45.89021301 C17.24220756 56.83392704 17.25680781 67.77764566 17.26971143 78.72137877 C17.27342121 81.81065182 17.27739462 84.89992442 17.2814641 87.98919702 C17.30669988 107.15855573 17.3287608 126.32791513 17.34119225 145.4972868 C17.34412212 149.94049266 17.34708376 154.38369849 17.35009766 158.8269043 C17.35084371 159.9312924 17.35158976 161.0356805 17.35235842 162.17353491 C17.36501526 180.06881174 17.39824064 197.96398929 17.43989949 215.85921969 C17.48228701 234.21746246 17.50588366 252.57565437 17.51111281 270.93394595 C17.51453069 281.24726285 17.52633008 291.56042464 17.55921555 301.87369347 C17.58717362 310.65628681 17.59823413 319.43869329 17.58702008 328.22132768 C17.58182239 332.70414215 17.58479184 337.18656502 17.60948563 341.66932297 C17.63189854 345.77220578 17.63130086 349.8744139 17.61228175 353.97730789 C17.60947048 355.46257929 17.61514271 356.94789567 17.63009469 358.43309446 C17.74815355 370.92244232 17.74815355 370.92244232 14.64071083 374.76292133 C13.76927626 375.50115729 12.89784168 376.23939325 12 377 C11.05640625 377.84304688 10.1128125 378.68609375 9.140625 379.5546875 C8.18671875 380.32039063 7.2328125 381.08609375 6.25 381.875 C5.28578125 382.65617187 4.3215625 383.43734375 3.328125 384.2421875 C1 386 1 386 0 386 C0 258.62 0 131.24 0 0 Z " fill="#FFFFFF" transform="translate(516,751)"/>
<path d="M0 0 C4.29 0 8.58 0 13 0 C13 34.32 13 68.64 13 104 C54.25 104 95.5 104 138 104 C138 107.63 138 111.26 138 115 C50.88 115 -36.24 115 -126 115 C-126 111.37 -126 107.74 -126 104 C-84.42 104 -42.84 104 0 104 C0 69.68 0 35.36 0 0 Z " fill="#FED909" transform="translate(487,617)"/>
<path d="M0 0 C4.29 0 8.58 0 13 0 C13 104.94 13 209.88 13 318 C8.71 318 4.42 318 0 318 C0 213.06 0 108.12 0 0 Z " fill="#FFD901" transform="translate(487,733)"/>
</svg>
