<?xml version="1.0" encoding="UTF-8"?>
<!DOCTYPE svg PUBLIC "-//W3C//DTD SVG 1.1//EN" "http://www.w3.org/Graphics/SVG/1.1/DTD/svg11.dtd">
<svg xmlns="http://www.w3.org/2000/svg" version="1.1" width="623px" height="620px" style="shape-rendering:geometricPrecision; text-rendering:geometricPrecision; image-rendering:optimizeQuality; fill-rule:evenodd; clip-rule:evenodd" xmlns:xlink="http://www.w3.org/1999/xlink">
<g><path style="opacity:1" fill="none" d="M -0.5,-0.5 C 207.167,-0.5 414.833,-0.5 622.5,-0.5C 622.5,206.167 622.5,412.833 622.5,619.5C 487.833,619.5 353.167,619.5 218.5,619.5C 218.5,552.833 218.5,486.167 218.5,419.5C 224.167,419.5 229.833,419.5 235.5,419.5C 235.5,431.833 235.5,444.167 235.5,456.5C 235.5,478.5 235.5,500.5 235.5,522.5C 245.167,522.5 254.833,522.5 264.5,522.5C 264.828,511.986 264.494,501.653 263.5,491.5C 263.5,467.5 263.5,443.5 263.5,419.5C 284.503,419.667 305.503,419.5 326.5,419C 389.157,412.01 424.323,377.177 432,314.5C 436.211,274.805 425.045,240.305 398.5,211C 377.307,192.747 352.641,182.747 324.5,181C 274.168,180.5 223.834,180.333 173.5,180.5C 173.5,172.833 173.5,165.167 173.5,157.5C 227.501,157.333 281.501,157.5 335.5,158C 411.222,166.389 452.722,208.556 460,284.5C 463.106,320.06 456.106,353.393 439,384.5C 416.613,417.461 385.446,436.294 345.5,441C 325.195,442.369 304.862,442.869 284.5,442.5C 284.5,469.167 284.5,495.833 284.5,522.5C 328.584,524.974 371.251,518.474 412.5,503C 485.687,470.436 527.854,414.27 539,334.5C 545.053,289.059 539.719,245.059 523,202.5C 495.5,142.346 449.667,103.846 385.5,87C 363.168,81.4163 340.502,78.4163 317.5,78C 211.501,77.5 105.501,77.3333 -0.5,77.5C -0.5,51.5 -0.5,25.5 -0.5,-0.5 Z"/></g>
<g><path style="opacity:1" fill="#FFFFFF" d="M -0.5,77.5 C 105.501,77.3333 211.501,77.5 317.5,78C 340.502,78.4163 363.168,81.4163 385.5,87C 449.667,103.846 495.5,142.346 523,202.5C 539.719,245.059 545.053,289.059 539,334.5C 527.854,414.27 485.687,470.436 412.5,503C 371.251,518.474 328.584,524.974 284.5,522.5C 284.5,495.833 284.5,469.167 284.5,442.5C 304.862,442.869 325.195,442.369 345.5,441C 385.446,436.294 416.613,417.461 439,384.5C 456.106,353.393 463.106,320.06 460,284.5C 452.722,208.556 411.222,166.389 335.5,158C 281.501,157.5 227.501,157.333 173.5,157.5C 173.5,165.167 173.5,172.833 173.5,180.5C 223.834,180.333 274.168,180.5 324.5,181C 352.641,182.747 377.307,192.747 398.5,211C 425.045,240.305 436.211,274.805 432,314.5C 424.323,377.177 389.157,412.01 326.5,419C 305.503,419.5 284.503,419.667 263.5,419.5C 263.5,443.5 263.5,467.5 263.5,491.5C 263.5,501.5 263.5,511.5 263.5,521.5C 254.5,521.5 245.5,521.5 236.5,521.5C 236.831,499.66 236.497,477.994 235.5,456.5C 235.5,444.167 235.5,431.833 235.5,419.5C 229.833,419.5 224.167,419.5 218.5,419.5C 218.5,486.167 218.5,552.833 218.5,619.5C 209.5,619.5 200.5,619.5 191.5,619.5C 191.49,552.831 191.157,486.165 190.5,419.5C 185.167,419.5 179.833,419.5 174.5,419.5C 174.5,453.833 174.5,488.167 174.5,522.5C 165.167,522.5 155.833,522.5 146.5,522.5C 146.5,488.167 146.5,453.833 146.5,419.5C 97.5,419.5 48.5,419.5 -0.5,419.5C -0.5,410.5 -0.5,401.5 -0.5,392.5C 48.5,392.5 97.5,392.5 146.5,392.5C 146.83,376.658 146.496,360.991 145.5,345.5C 145.5,324.833 145.5,304.167 145.5,283.5C 145.5,277.167 145.5,270.833 145.5,264.5C 154.167,264.5 162.833,264.5 171.5,264.5C 172.167,276.833 172.833,289.167 173.5,301.5C 173.5,321.167 173.5,340.833 173.5,360.5C 173.5,371.167 173.5,381.833 173.5,392.5C 179.167,392.5 184.833,392.5 190.5,392.5C 190.832,354.996 190.498,317.663 189.5,280.5C 189.5,274.833 189.5,269.167 189.5,263.5C 198.833,263.5 208.167,263.5 217.5,263.5C 217.5,286.167 217.5,308.833 217.5,331.5C 217.5,351.833 217.5,372.167 217.5,392.5C 223.5,392.5 229.5,392.5 235.5,392.5C 235.831,363.662 235.498,334.995 234.5,306.5C 234.5,292.5 234.5,278.5 234.5,264.5C 243.5,264.5 252.5,264.5 261.5,264.5C 261.175,272.019 261.508,279.352 262.5,286.5C 262.5,321.833 262.5,357.167 262.5,392.5C 281.17,392.667 299.836,392.5 318.5,392C 360.253,390.873 387.753,370.707 401,331.5C 406.483,307.2 405.483,283.2 398,259.5C 386.368,231.55 365.535,215.05 335.5,210C 330.148,209.479 324.815,208.813 319.5,208C 261.501,207.5 203.501,207.333 145.5,207.5C 145.5,181.5 145.5,155.5 145.5,129.5C 206.834,129.333 268.168,129.5 329.5,130C 367.417,131.303 401.417,143.303 431.5,166C 463.167,193.158 481.334,227.658 486,269.5C 491.147,309.661 485.814,348.327 470,385.5C 445.74,431.091 407.907,458.257 356.5,467C 341.919,469.271 327.252,470.437 312.5,470.5C 311.508,478.316 311.174,486.316 311.5,494.5C 316.032,494.818 320.366,494.485 324.5,493.5C 368.678,492.052 408.678,478.552 444.5,453C 484.105,420.639 506.605,378.805 512,327.5C 517.382,286.353 512.049,246.686 496,208.5C 474.329,164.162 440.163,133.995 393.5,118C 370.78,110.657 347.446,106.657 323.5,106C 215.501,105.5 107.501,105.333 -0.5,105.5C -0.5,96.1667 -0.5,86.8333 -0.5,77.5 Z"/></g>
<g><path style="opacity:1" fill="none" d="M -0.5,105.5 C 107.501,105.333 215.501,105.5 323.5,106C 347.446,106.657 370.78,110.657 393.5,118C 440.163,133.995 474.329,164.162 496,208.5C 512.049,246.686 517.382,286.353 512,327.5C 506.605,378.805 484.105,420.639 444.5,453C 408.678,478.552 368.678,492.052 324.5,493.5C 320.5,493.5 316.5,493.5 312.5,493.5C 312.5,485.833 312.5,478.167 312.5,470.5C 327.252,470.437 341.919,469.271 356.5,467C 407.907,458.257 445.74,431.091 470,385.5C 485.814,348.327 491.147,309.661 486,269.5C 481.334,227.658 463.167,193.158 431.5,166C 401.417,143.303 367.417,131.303 329.5,130C 268.168,129.5 206.834,129.333 145.5,129.5C 145.5,155.5 145.5,181.5 145.5,207.5C 203.501,207.333 261.501,207.5 319.5,208C 324.815,208.813 330.148,209.479 335.5,210C 365.535,215.05 386.368,231.55 398,259.5C 405.483,283.2 406.483,307.2 401,331.5C 387.753,370.707 360.253,390.873 318.5,392C 299.836,392.5 281.17,392.667 262.5,392.5C 262.5,357.167 262.5,321.833 262.5,286.5C 262.5,278.833 262.5,271.167 262.5,263.5C 252.985,263.173 243.652,263.506 234.5,264.5C 234.5,278.5 234.5,292.5 234.5,306.5C 234.5,334.833 234.5,363.167 234.5,391.5C 229.167,391.5 223.833,391.5 218.5,391.5C 218.83,371.326 218.497,351.326 217.5,331.5C 217.5,308.833 217.5,286.167 217.5,263.5C 208.167,263.5 198.833,263.5 189.5,263.5C 189.5,269.167 189.5,274.833 189.5,280.5C 189.5,317.5 189.5,354.5 189.5,391.5C 184.5,391.5 179.5,391.5 174.5,391.5C 174.828,380.986 174.494,370.653 173.5,360.5C 173.5,340.833 173.5,321.167 173.5,301.5C 174.147,288.456 173.48,275.789 171.5,263.5C 162.5,263.5 153.5,263.5 144.5,263.5C 144.176,270.354 144.509,277.021 145.5,283.5C 145.5,304.167 145.5,324.833 145.5,345.5C 145.5,360.833 145.5,376.167 145.5,391.5C 96.8333,391.5 48.1667,391.5 -0.5,391.5C -0.5,296.167 -0.5,200.833 -0.5,105.5 Z"/></g>
<g><path style="opacity:1" fill="none" d="M 171.5,263.5 C 171.5,263.833 171.5,264.167 171.5,264.5C 162.833,264.5 154.167,264.5 145.5,264.5C 145.5,270.833 145.5,277.167 145.5,283.5C 144.509,277.021 144.176,270.354 144.5,263.5C 153.5,263.5 162.5,263.5 171.5,263.5 Z"/></g>
<g><path style="opacity:1" fill="none" d="M 234.5,264.5 C 243.652,263.506 252.985,263.173 262.5,263.5C 262.5,271.167 262.5,278.833 262.5,286.5C 261.508,279.352 261.175,272.019 261.5,264.5C 252.5,264.5 243.5,264.5 234.5,264.5 Z"/></g>
<g><path style="opacity:1" fill="none" d="M 171.5,264.5 C 171.5,264.167 171.5,263.833 171.5,263.5C 173.48,275.789 174.147,288.456 173.5,301.5C 172.833,289.167 172.167,276.833 171.5,264.5 Z"/></g>
<g><path style="opacity:1" fill="none" d="M 234.5,306.5 C 235.498,334.995 235.831,363.662 235.5,392.5C 229.5,392.5 223.5,392.5 217.5,392.5C 217.5,372.167 217.5,351.833 217.5,331.5C 218.497,351.326 218.83,371.326 218.5,391.5C 223.833,391.5 229.167,391.5 234.5,391.5C 234.5,363.167 234.5,334.833 234.5,306.5 Z"/></g>
<g><path style="opacity:1" fill="none" d="M 145.5,345.5 C 146.496,360.991 146.83,376.658 146.5,392.5C 97.5,392.5 48.5,392.5 -0.5,392.5C -0.5,392.167 -0.5,391.833 -0.5,391.5C 48.1667,391.5 96.8333,391.5 145.5,391.5C 145.5,376.167 145.5,360.833 145.5,345.5 Z"/></g>
<g><path style="opacity:1" fill="none" d="M 189.5,280.5 C 190.498,317.663 190.832,354.996 190.5,392.5C 184.833,392.5 179.167,392.5 173.5,392.5C 173.5,381.833 173.5,371.167 173.5,360.5C 174.494,370.653 174.828,380.986 174.5,391.5C 179.5,391.5 184.5,391.5 189.5,391.5C 189.5,354.5 189.5,317.5 189.5,280.5 Z"/></g>
<g><path style="opacity:1" fill="none" d="M -0.5,419.5 C 48.5,419.5 97.5,419.5 146.5,419.5C 146.5,453.833 146.5,488.167 146.5,522.5C 155.833,522.5 165.167,522.5 174.5,522.5C 174.5,488.167 174.5,453.833 174.5,419.5C 179.833,419.5 185.167,419.5 190.5,419.5C 191.157,486.165 191.49,552.831 191.5,619.5C 127.5,619.5 63.5,619.5 -0.5,619.5C -0.5,552.833 -0.5,486.167 -0.5,419.5 Z"/></g>
<g><path style="opacity:1" fill="none" d="M 312.5,470.5 C 312.5,478.167 312.5,485.833 312.5,493.5C 316.5,493.5 320.5,493.5 324.5,493.5C 320.366,494.485 316.032,494.818 311.5,494.5C 311.174,486.316 311.508,478.316 312.5,470.5 Z"/></g>
<g><path style="opacity:1" fill="none" d="M 235.5,456.5 C 236.497,477.994 236.831,499.66 236.5,521.5C 245.5,521.5 254.5,521.5 263.5,521.5C 263.5,511.5 263.5,501.5 263.5,491.5C 264.494,501.653 264.828,511.986 264.5,522.5C 254.833,522.5 245.167,522.5 235.5,522.5C 235.5,500.5 235.5,478.5 235.5,456.5 Z"/></g>
</svg>
