<svg version="1.1" viewBox="195.894 599.359 965.707 557.07" width="140" heigth="27"  xmlns="http://www.w3.org/2000/svg">
  <defs></defs>
  <path d="M 362.628 609.886 L 419.628 609.886 L 419.628 746.886 L 608.628 746.886 L 629.628 749.886 L 646.628 754.886 L 663.628 762.886 L 677.628 772.886 L 687.628 781.886 L 697.628 794.886 L 705.628 809.886 L 711.628 826.886 L 714.628 842.886 L 715.628 851.886 L 715.628 878.886 L 712.628 898.886 L 707.628 914.886 L 701.628 928.886 L 693.628 940.886 L 685.628 950.886 L 677.628 958.886 L 663.628 968.886 L 649.628 975.886 L 631.628 981.886 L 616.628 984.886 L 604.628 985.886 L 461.628 985.886 L 461.628 929.886 L 602.628 928.886 L 618.628 925.886 L 630.628 920.886 L 639.628 913.886 L 642.628 912.886 L 644.628 908.886 L 651.628 898.886 L 656.628 885.886 L 658.628 864.886 L 656.628 847.886 L 650.628 832.886 L 643.628 823.886 L 634.628 815.886 L 622.628 809.886 L 606.628 805.886 L 419.628 804.886 L 419.628 1141.886 L 418.628 1142.886 L 362.628 1142.886 L 361.628 1141.886 L 361.628 804.886 L 225.628 804.886 L 225.628 746.886 L 361.628 746.886 L 361.628 610.886 L 362.628 609.886 Z" fill="white"></path>
  <path d="M 815.857 1036.574 L 858.857 1036.574 L 868.857 1039.574 L 877.857 1045.574 L 882.857 1052.574 L 884.857 1058.574 L 884.857 1071.574 L 880.857 1081.574 L 873.857 1088.574 L 864.857 1093.574 L 881.857 1122.574 L 885.857 1130.574 L 863.857 1130.574 L 853.857 1113.574 L 843.857 1095.574 L 839.857 1094.574 L 835.857 1094.574 L 834.857 1130.574 L 815.857 1130.574 L 815.857 1036.574 Z" fill="white"></path>
  <path d="M 1059.857 1036.574 L 1078.857 1036.574 L 1078.857 1075.574 L 1117.857 1074.574 L 1118.857 1036.574 L 1137.857 1036.574 L 1137.857 1130.574 L 1118.857 1130.574 L 1118.857 1090.574 L 1078.857 1090.574 L 1078.857 1130.574 L 1059.857 1130.574 L 1059.857 1036.574 Z" fill="white"></path>
  <path d="M 570.857 1036.574 L 589.857 1036.574 L 590.857 1074.574 L 629.857 1075.574 L 629.857 1036.574 L 648.857 1036.574 L 648.857 1130.574 L 629.857 1130.574 L 629.857 1090.574 L 589.857 1090.574 L 589.857 1130.574 L 570.857 1130.574 L 570.857 1036.574 Z" fill="white"></path>
  <path d="M 696.033 1036.324 L 715.033 1036.324 L 716.033 1102.324 L 720.033 1109.324 L 725.033 1112.324 L 729.033 1113.324 L 738.033 1113.324 L 745.033 1110.324 L 750.033 1105.324 L 752.033 1097.324 L 753.033 1036.324 L 772.033 1036.324 L 772.033 1098.324 L 770.033 1108.324 L 766.033 1116.324 L 761.033 1122.324 L 754.033 1127.324 L 745.033 1130.324 L 740.033 1131.324 L 726.033 1131.324 L 713.033 1127.324 L 704.033 1120.324 L 698.033 1110.324 L 696.033 1104.324 L 696.033 1036.324 Z" fill="white"></path>
  <path d="M 474.857 1035.574 L 492.857 1035.574 L 505.857 1039.574 L 514.857 1045.574 L 521.857 1052.574 L 527.857 1063.574 L 527.857 1065.574 L 505.857 1065.574 L 501.857 1060.574 L 501.857 1058.574 L 497.857 1056.574 L 489.857 1053.574 L 477.857 1053.574 L 468.857 1056.574 L 462.857 1061.574 L 457.857 1071.574 L 456.857 1074.574 L 456.857 1091.574 L 460.857 1101.574 L 467.857 1109.574 L 473.857 1112.574 L 478.857 1113.574 L 488.857 1113.574 L 494.857 1111.574 L 500.857 1107.574 L 506.857 1100.574 L 527.857 1100.574 L 526.857 1105.574 L 520.857 1115.574 L 513.857 1122.574 L 499.857 1129.574 L 490.857 1131.574 L 476.857 1131.574 L 464.857 1128.574 L 453.857 1122.574 L 445.857 1114.574 L 439.857 1104.574 L 436.857 1095.574 L 435.857 1089.574 L 435.857 1076.574 L 438.857 1064.574 L 444.857 1053.574 L 449.857 1047.574 L 459.857 1040.574 L 469.857 1036.574 L 474.857 1035.574 Z" fill="white"></path>
  <path d="M 962.857 1035.574 L 981.857 1035.574 L 994.857 1039.574 L 1005.857 1047.574 L 1012.857 1056.574 L 1015.857 1062.574 L 1015.857 1065.574 L 993.857 1065.574 L 989.857 1059.574 L 984.857 1055.574 L 977.857 1053.574 L 965.857 1053.574 L 957.857 1056.574 L 950.857 1062.574 L 945.857 1072.574 L 944.857 1077.574 L 944.857 1089.574 L 947.857 1099.574 L 953.857 1107.574 L 962.857 1112.574 L 966.857 1113.574 L 977.857 1113.574 L 986.857 1109.574 L 991.857 1104.574 L 994.857 1100.574 L 1015.857 1100.574 L 1014.857 1106.574 L 1007.857 1117.574 L 998.857 1124.574 L 988.857 1129.574 L 978.857 1131.574 L 965.857 1131.574 L 952.857 1128.574 L 942.857 1122.574 L 934.857 1115.574 L 927.857 1103.574 L 924.857 1093.574 L 924.857 1073.574 L 927.857 1063.574 L 932.857 1054.574 L 941.857 1044.574 L 954.857 1037.574 L 962.857 1035.574 Z" fill="white"></path>
  <path d="M 834.857 1052.574 L 856.857 1052.574 L 862.857 1056.574 L 865.857 1063.574 L 864.857 1072.574 L 860.857 1077.574 L 855.857 1079.574 L 834.857 1079.574 L 834.857 1052.574 Z" fill="#1B1B1B"></path>
</svg>