<?xml version="1.0" encoding="UTF-8"?>
<svg version="1.1" xmlns="http://www.w3.org/2000/svg" width="3200" height="3200">
<path d="M0 0 C0.68936699 -0.00098883 1.37873398 -0.00197766 2.08899088 -0.00299646 C3.85241682 -0.00557008 5.61584121 -0.00915253 7.37926516 -0.01284388 C12.3818561 0.02216581 17.36929122 0.25604621 22.36404253 0.5240249 C23.98285326 0.60722986 23.98285326 0.60722986 25.63436724 0.69211572 C29.12405609 0.87461165 32.61321848 1.06507917 36.10232378 1.2583999 C37.3147777 1.3253103 38.52723161 1.3922207 39.77642656 1.46115869 C97.70490167 4.69861012 155.37896832 11.29768768 212.41482378 22.0083999 C213.32842668 22.1796438 214.24202959 22.3508877 215.18331743 22.5273208 C270.41286887 32.92971589 324.30258502 47.73096939 377.41482378 66.0083999 C378.57933061 66.40768701 379.74383745 66.80697412 380.94363237 67.21836084 C398.05325765 73.12034975 414.77933466 79.8925626 431.41482378 87.0083999 C432.52019487 87.48116358 433.62556597 87.95392725 434.76443315 88.44101709 C504.0897466 118.28537761 570.44552468 156.46386882 628.73415972 204.62754053 C631.00171088 206.49059535 633.30063725 208.31277326 635.60232378 210.1333999 C641.06676401 214.49400497 646.39027616 219.01742702 651.70730425 223.5552749 C653.39763789 224.99377445 655.0949387 226.42365428 656.79373003 227.8521499 C664.6408054 234.47809566 672.17698079 241.38454856 679.63357378 248.4458999 C682.72521266 251.371586 685.8704386 254.22938216 689.03982378 257.0708999 C695.10372496 262.60786898 700.91472761 268.39777721 706.72732378 274.1958999 C707.20381365 274.66980158 707.68030351 275.14370325 708.17123247 275.63196558 C713.20486504 280.64400901 718.11672487 285.69622303 722.74075151 291.08921045 C725.80877594 294.60645415 729.06726259 297.94589931 732.28982378 301.3208999 C737.50030308 306.81761042 742.50711327 312.3510247 747.21951128 318.2818374 C749.83440474 321.52951648 752.5585109 324.67121173 755.28982378 327.8208999 C760.70010443 334.0919458 765.85183132 340.53167296 770.91824175 347.08213037 C772.53320977 349.160776 774.16247633 351.2276698 775.79373003 353.29355615 C783.11674984 362.59259679 790.11890112 372.05209964 796.86111284 381.779396 C798.48717212 384.11219317 800.13246168 386.43044251 801.78201128 388.74668115 C826.29069403 423.25119668 847.54336358 460.05858108 866.74783159 497.74179834 C868.30151051 500.7863537 869.86882445 503.82351079 871.43826128 506.8599624 C909.392312 580.87384565 935.4011552 661.74812096 974.41482378 939.0083999 C974.42578081 939.67327417 974.43673784 940.33814844 974.4480269 941.02317041 C975.90220815 1032.9734028 962.68837776 1124.33751681 917.41482378 1323.0083999 C917.20466631 1323.69518823 916.99450884 1324.38197656 916.77798296 1325.08957666 C901.00868633 1376.59132839 877.38195801 1425.50329468 850.41482378 1472.0083999 C849.98395464 1472.75412256 849.5530855 1473.49984522 849.10915972 1474.26816553 C838.44067868 1492.69938139 827.25723032 1510.82389868 815.77029253 1528.75449365 C813.64835714 1532.06771223 811.54460544 1535.39073456 809.46560503 1538.73105615 C796.96020336 1558.8087706 783.59766113 1578.17661542 769.08035112 1596.8521499 C766.92208338 1599.64631887 764.82364187 1602.47998796 762.72732378 1605.3208999 C757.66129596 1612.10143427 752.28686244 1618.62980491 746.91921831 1625.17197412 C745.60936792 1626.7709184 744.30640968 1628.37550384 743.00466753 1629.98105615 C740.82298587 1632.66955315 738.62183922 1635.34065769 736.41482378 1638.0083999 C735.60569536 1638.98994043 734.79656694 1639.97148096 733.96291948 1640.98276514 C726.25802449 1650.20869892 717.95429295 1658.74627193 709.42263628 1667.20639795 C707.14853476 1669.46205682 704.88272404 1671.72580268 702.61794878 1673.99082178 C701.14967206 1675.45418743 699.68093831 1676.91709468 698.21169878 1678.37949365 C697.54692522 1679.04315439 696.88215166 1679.70681513 696.19723345 1680.39058679 C692.31391772 1684.23527424 688.32653938 1687.90839255 684.18559099 1691.47451013 C681.59833563 1693.71566555 679.10704109 1696.05033455 676.60232378 1698.3833999 C672.00303846 1702.63325287 667.26394438 1706.64416494 662.38357378 1710.5708999 C658.89199593 1713.43766908 655.49975576 1716.40636271 652.10232378 1719.3833999 C645.65770399 1725.00687796 639.05366924 1730.36765959 632.27322222 1735.57968897 C630.30870239 1737.08998455 628.35008855 1738.6077566 626.39138628 1740.1255874 C616.2249817 1747.97772706 605.88346413 1755.56495104 595.41482378 1763.0083999 C594.61673296 1763.5770376 593.81864214 1764.14567529 592.99636675 1764.73154444 C559.31309939 1788.68215903 523.96230263 1810.04941535 487.45144487 1829.39609522 C484.65876348 1830.87887926 481.87377799 1832.37505763 479.09060503 1833.8755874 C419.21672074 1865.96817382 354.05555871 1888.99164413 288.41482378 1906.0083999 C287.68404619 1906.19813379 286.9532686 1906.38786768 286.20034624 1906.58335108 C221.89709942 1923.22122942 156.10792659 1933.86423472 90.16482378 1941.4458999 C89.43767168 1941.52989038 88.71051958 1941.61388086 87.96133257 1941.70041651 C81.75389041 1942.4107066 75.66965477 1943.10315224 69.41482378 1943.0083999 C69.41482378 1943.6683999 69.41482378 1944.3283999 69.41482378 1945.0083999 C-4.50517622 1945.0083999 -78.42517622 1945.0083999 -154.58517622 1945.0083999 C-154.58517622 1830.1683999 -154.58517622 1715.3283999 -154.58517622 1597.0083999 C-46.08517622 1596.6333999 -46.08517622 1596.6333999 -12.0675981 1596.53037256 C-1.83620883 1596.49037861 -1.83620883 1596.49037861 8.39517046 1596.44794458 C12.88507645 1596.42938725 17.37496433 1596.41586709 21.86489702 1596.40570825 C44.45431113 1596.35224938 67.01586865 1596.23249064 89.5808394 1595.09580225 C90.37403865 1595.05642015 91.16723789 1595.01703804 91.98447347 1594.97646254 C188.82932114 1590.0241173 296.78850652 1557.46848419 382.41482378 1496.0083999 C383.44607378 1495.25043115 384.47732378 1494.4924624 385.53982378 1493.7115249 C395.72429868 1486.17709194 405.36361081 1478.17719277 414.64138628 1469.5630874 C416.88559413 1467.4958875 419.15668237 1465.48804911 421.47732378 1463.5083999 C428.66796959 1457.26152635 435.36828273 1450.40057721 441.54763628 1443.1568374 C443.44265628 1440.97637506 445.39420976 1438.85461892 447.359648 1436.73764795 C452.08888191 1431.63947244 456.62868951 1426.44542297 460.98904253 1421.0240249 C462.76842243 1418.81197775 464.56112931 1416.61633151 466.37185503 1414.4302749 C478.9041948 1399.25144963 490.47526665 1383.36842414 501.41482378 1367.0083999 C501.91304643 1366.26573877 502.41126909 1365.52307764 502.9245894 1364.75791162 C512.00242916 1351.17224049 520.32007124 1337.19796611 528.41482378 1323.0083999 C528.86954057 1322.21756006 529.32425737 1321.42672022 529.79275347 1320.61191553 C543.58034159 1296.59756142 555.01695269 1271.63703335 565.41482378 1246.0083999 C565.90724565 1244.79845361 566.39966753 1243.58850733 566.90701128 1242.341896 C600.63509357 1158.63895143 614.69732144 1066.91795033 593.41482378 787.0083999 C593.28031816 786.31417932 593.14581255 785.61995874 593.007231 784.90470117 C584.35283566 740.46332296 571.66565803 696.40977691 550.547148 656.17441553 C549.21808786 653.63206505 547.91253086 651.078142 546.60623003 648.5240249 C523.60208785 603.7329302 494.98117599 561.38761628 460.19119097 524.88632959 C458.34492826 522.93450816 456.52196851 520.9630435 454.70388628 518.9849624 C446.97161151 510.52716252 446.97161151 510.52716252 438.52419878 502.80136865 C436.21383078 500.83755586 434.00605653 498.7852304 431.79226518 496.71396631 C425.54117963 490.86745838 419.12465468 485.328403 412.41482378 480.0083999 C411.37180641 479.17252306 410.32883966 478.33658307 409.28591753 477.5005874 C361.02595714 439.00786251 306.56388205 408.73980329 248.41482378 388.0083999 C247.29253374 387.60637354 246.1702437 387.20434717 245.01394487 386.79013819 C180.01260075 363.72821287 111.57337247 356.42033757 43.00442339 354.69126123 C41.79579637 354.65882822 40.58716936 354.6263952 39.34191728 354.59297937 C37.11676289 354.53452328 34.89143631 354.48205 32.66595293 354.43785852 C27.77990293 354.31018782 22.93149781 354.09140759 18.07317597 353.54678684 C3.53480709 351.91960048 -10.86569475 351.71730076 -25.48332381 351.729927 C-28.14957541 351.72491442 -30.81581505 351.71911815 -33.4820618 351.71237427 C-39.24254809 351.69935664 -45.00300526 351.69352284 -50.76350569 351.69261354 C-59.32892443 351.69122784 -67.89430034 351.67838675 -76.4597046 351.6633258 C-90.87356184 351.63829941 -105.28741541 351.62237362 -119.70128988 351.61174387 C-133.96035015 351.60119815 -148.21939656 351.58654045 -162.47844671 351.56646341 C-163.81133336 351.56459011 -163.81133336 351.56459011 -165.17114702 351.56267896 C-169.6843678 351.55631468 -174.19758848 351.54987763 -178.71080913 351.54341258 C-210.62766451 351.49782333 -242.54452438 351.46134432 -274.46139693 351.4302749 C-305.45652081 351.40008178 -336.45163557 351.36572975 -367.44674849 351.32578272 C-368.40317033 351.32455171 -369.35959218 351.32332071 -370.34499651 351.3220524 C-379.95030734 351.3096849 -389.55561807 351.29723324 -399.16092871 351.28471992 C-418.72578041 351.25923373 -438.29063282 351.2343091 -457.85548567 351.20972437 C-458.75492647 351.20859346 -459.65436727 351.20746255 -460.58106385 351.20629737 C-520.58242424 351.13091919 -580.58379944 351.06908006 -640.58517622 351.0083999 C-640.58517622 384.3383999 -640.58517622 417.6683999 -640.58517622 452.0083999 C-628.68743399 451.98508348 -628.68743399 451.98508348 -616.54933333 451.96129602 C-564.01465783 451.86072219 -511.47998178 451.76826126 -458.94523787 451.71199793 C-458.04520698 451.71103153 -457.14517609 451.71006513 -456.21787153 451.70906944 C-436.64491215 451.68810575 -417.0719515 451.6687164 -397.49898896 451.6509426 C-387.89661425 451.64221333 -378.29423989 451.63313716 -368.69186568 451.62387842 C-367.25874665 451.62250545 -367.25874665 451.62250545 -365.79667574 451.62110474 C-334.98127505 451.59142077 -304.16596585 451.53895237 -273.35062029 451.47431936 C-241.61131813 451.40787133 -209.87206633 451.36510556 -178.13269581 451.35099497 C-173.62157905 451.3489787 -169.11046246 451.34669926 -164.59934592 451.3442592 C-163.7117312 451.34378724 -162.82411648 451.34331528 -161.90960434 451.34282902 C-147.7781407 451.33464465 -133.64683552 451.30242071 -119.51543581 451.26057567 C-105.21367693 451.21876222 -90.9120707 451.20377088 -76.61025317 451.21389026 C-68.89969557 451.2186569 -61.18955461 451.21315343 -53.47908377 451.17396158 C21.89342271 450.80573199 98.96761704 457.35331001 170.89968706 481.17978662 C173.05304166 481.88921057 175.21127937 482.56948518 177.37966753 483.23105615 C205.87691091 492.17451049 233.52875471 505.20551584 259.41482378 520.0083999 C260.26818315 520.49566553 261.12154253 520.98293115 262.00076128 521.4849624 C279.94511025 531.80986473 296.83815948 543.51226606 312.80544878 556.68711084 C314.28865276 557.90481411 315.78852718 559.10213658 317.28982378 560.2974624 C323.20396066 565.02533346 328.78877896 570.03670263 334.29397417 575.22885889 C337.17209986 577.94227892 340.07979473 580.59033194 343.08669878 583.16074365 C348.25108417 587.65313225 353.06011621 592.50393026 357.88772417 597.3509292 C359.47442324 598.94298957 361.0664012 600.52962981 362.6589644 602.11582178 C368.12089897 607.57386816 373.42790131 613.10794459 378.41482378 619.0083999 C379.30329458 620.02997495 380.1925706 621.05085046 381.08279253 622.0708999 C392.18000482 635.00904508 402.2445625 648.6414188 411.41482378 663.0083999 C411.84085893 663.67500635 412.26689409 664.34161279 412.7058394 665.02841944 C424.65998898 683.86727367 435.42272794 703.58300221 444.41482378 724.0083999 C444.82909624 724.9482876 445.2433687 725.88817529 445.67019487 726.85654444 C458.00847531 755.21037882 467.35822959 784.92043948 474.41482378 815.0083999 C474.66925249 816.07090967 474.9236812 817.13341944 475.18581987 818.22812647 C482.62911761 849.63027442 486.96521071 881.85262768 489.41482378 914.0083999 C489.51778765 915.28183252 489.62075151 916.55526514 489.7268355 917.86728662 C493.04850048 960.31428202 492.93336805 1003.57700522 489.41482378 1046.0083999 C489.30767046 1047.31212549 489.20051714 1048.61585108 489.09011675 1049.9590835 C482.32194129 1129.37431255 462.22516941 1209.60935668 418.41482378 1277.0083999 C417.78576128 1277.99195459 417.15669878 1278.97550928 416.50857378 1279.98886865 C406.22239615 1295.78861184 394.60814326 1310.64776572 382.41482378 1325.0083999 C381.85907671 1325.66324365 381.30332964 1326.3180874 380.73074175 1326.9927749 C373.62427175 1335.33615031 366.30873796 1343.46264768 358.83376909 1351.47617334 C356.58675371 1353.9025788 354.38111307 1356.36644221 352.16482378 1358.8208999 C341.92354672 1369.97974803 331.37957141 1380.69145258 319.41482378 1390.0083999 C318.25239801 1390.95744981 317.09239286 1391.90946949 315.93435503 1392.86386865 C282.21026303 1420.54082102 242.31985043 1439.52003505 201.41482378 1454.0083999 C200.30639116 1454.40381983 199.19795854 1454.79923975 198.05593706 1455.20664209 C176.82297803 1462.71814758 155.26999744 1468.61537019 133.41482378 1474.0083999 C132.6899074 1474.18780115 131.96499101 1474.36720239 131.21810747 1474.55204004 C106.64186135 1480.61504813 81.8089442 1485.43649694 56.88297869 1489.82454675 C52.73023854 1490.56557653 48.60937147 1491.38813885 44.48875261 1492.28977197 C22.76172625 1496.81987218 1.23225887 1496.75194111 -20.87930726 1496.71729869 C-26.35285953 1496.71410626 -31.82629173 1496.73943343 -37.29979109 1496.7612533 C-47.69040579 1496.79848387 -58.08089024 1496.81082324 -68.47156506 1496.8138777 C-80.06305976 1496.81850932 -91.65441486 1496.85147068 -103.2458502 1496.88677555 C-150.69225221 1497.02899235 -198.13849106 1497.0083999 -245.58517622 1497.0083999 C-245.58517622 1644.8483999 -245.58517622 1792.6883999 -245.58517622 1945.0083999 C-279.90517622 1945.0083999 -314.22517622 1945.0083999 -349.58517622 1945.0083999 C-349.58517622 1797.1683999 -349.58517622 1649.3283999 -349.58517622 1497.0083999 C-396.44517622 1497.0083999 -443.30517622 1497.0083999 -491.58517622 1497.0083999 C-491.58517622 1752.4283999 -491.58517622 2007.8483999 -491.58517622 2271.0083999 C-501.81517622 2271.0083999 -512.04517622 2271.0083999 -522.58517622 2271.0083999 C-522.58517622 2015.5883999 -522.58517622 1760.1683999 -522.58517622 1497.0083999 C-561.52517622 1497.0083999 -600.46517622 1497.0083999 -640.58517622 1497.0083999 C-640.58517622 1644.5183999 -640.58517622 1792.0283999 -640.58517622 1944.0083999 C-675.23517622 1944.0083999 -709.88517622 1944.0083999 -745.58517622 1944.0083999 C-745.58517622 1796.4983999 -745.58517622 1648.9883999 -745.58517622 1497.0083999 C-773.96517622 1497.0083999 -802.34517622 1497.0083999 -831.58517622 1497.0083999 C-831.58517622 1486.7783999 -831.58517622 1476.5483999 -831.58517622 1466.0083999 C-803.20517622 1466.0083999 -774.82517622 1466.0083999 -745.58517622 1466.0083999 C-745.58517622 1451.4883999 -745.58517622 1436.9683999 -745.58517622 1422.0083999 C-825.11517622 1422.0083999 -904.64517622 1422.0083999 -986.58517622 1422.0083999 C-985.35178824 1418.30823595 -983.94697179 1417.46136957 -980.89767622 1415.0708999 C-975.82390714 1411.02373002 -970.87591821 1406.86256912 -965.97311568 1402.61020654 C-910.2644394 1354.50760383 -819.18760145 1389.0083999 -745.58517622 1389.0083999 C-745.58517622 1198.9283999 -745.58517622 1008.8483999 -745.58517622 813.0083999 C-710.93517622 813.0083999 -676.28517622 813.0083999 -640.58517622 813.0083999 C-640.58517622 1003.0883999 -640.58517622 1193.1683999 -640.58517622 1389.0083999 C-619.13517622 1389.0083999 -597.68517622 1389.0083999 -575.58517622 1389.0083999 C-575.58517622 1399.8983999 -575.58517622 1410.7883999 -575.58517622 1422.0083999 C-597.03517622 1422.0083999 -618.48517622 1422.0083999 -640.58517622 1422.0083999 C-640.58517622 1436.5283999 -640.58517622 1451.0483999 -640.58517622 1466.0083999 C-601.64517622 1466.0083999 -562.70517622 1466.0083999 -522.58517622 1466.0083999 C-522.58517622 1383.5083999 -522.58517622 1301.0083999 -522.58517622 1216.0083999 C-512.35517622 1216.0083999 -502.12517622 1216.0083999 -491.58517622 1216.0083999 C-491.58517622 1298.5083999 -491.58517622 1381.0083999 -491.58517622 1466.0083999 C-444.72517622 1466.0083999 -397.86517622 1466.0083999 -349.58517622 1466.0083999 C-349.58517622 1451.1583999 -349.58517622 1436.3083999 -349.58517622 1421.0083999 C-383.90517622 1421.0083999 -418.22517622 1421.0083999 -453.58517622 1421.0083999 C-453.58517622 1318.0483999 -453.58517622 1215.0883999 -453.58517622 1109.0083999 C-492.85517622 1109.0083999 -532.12517622 1109.0083999 -572.58517622 1109.0083999 C-564.92365166 1101.34687534 -556.95247862 1094.16589993 -548.48361372 1087.4068374 C-544.42552823 1084.04879901 -540.52200748 1080.50780547 -536.58517622 1077.0083999 C-495.66517622 1077.0083999 -454.74517622 1077.0083999 -412.58517622 1077.0083999 C-412.58517622 1179.9683999 -412.58517622 1282.9283999 -412.58517622 1389.0083999 C-391.79517622 1389.0083999 -371.00517622 1389.0083999 -349.58517622 1389.0083999 C-349.58517622 1199.5883999 -349.58517622 1010.1683999 -349.58517622 815.0083999 C-315.26517622 815.0083999 -280.94517622 815.0083999 -245.58517622 815.0083999 C-245.58517622 1000.4683999 -245.58517622 1185.9283999 -245.58517622 1377.0083999 C-49.80112604 1384.42369053 -49.80112604 1384.42369053 136.41482378 1350.0083999 C137.38951616 1349.67646631 138.36420854 1349.34453272 139.36843706 1349.00254053 C175.14456812 1336.65317664 209.64623024 1318.40613521 239.41482378 1295.0083999 C240.04662554 1294.51194971 240.67842729 1294.01549951 241.32937456 1293.50400537 C248.80832781 1287.60068924 256.06471262 1281.68079851 262.66873003 1274.7896499 C264.41482378 1273.0083999 264.41482378 1273.0083999 267.03982378 1270.9458999 C270.62185326 1268.02371796 273.42553686 1264.52231487 276.41482378 1261.0083999 C277.3237162 1259.97213381 278.23396873 1258.93705967 279.14529253 1257.90293115 C286.4105756 1249.61494091 293.08931819 1241.03234679 299.41482378 1232.0083999 C299.8294185 1231.42010401 300.24401323 1230.83180811 300.67117143 1230.22568506 C319.67296528 1203.07488569 333.3790708 1173.14108969 344.41482378 1142.0083999 C344.87429399 1140.71506738 344.87429399 1140.71506738 345.34304643 1139.39560694 C362.10995173 1091.358777 368.5594218 1039.30217829 368.58279253 988.63730615 C368.58602502 986.93791931 368.58939037 985.23853271 368.59287859 983.53914636 C368.5988028 980.00390729 368.60072561 976.4686924 368.60012651 972.93344873 C368.60004554 969.37447745 368.60695458 965.81563567 368.62063432 962.25669092 C368.7006859 941.08380523 368.46565675 920.10459591 366.41482378 899.0083999 C366.30127046 897.83109812 366.30127046 897.83109812 366.18542314 896.63001245 C365.76394065 892.40969804 365.24830378 888.20914471 364.66482378 884.0083999 C364.49635942 882.77968164 364.32789507 881.55096338 364.15432573 880.28501123 C358.20312723 838.8121825 345.83086607 799.09949207 326.41482378 762.0083999 C326.0466353 761.30247705 325.67844682 760.5965542 325.29910112 759.86923975 C312.48808443 735.52126008 295.82532722 711.65142008 275.91873003 692.51230615 C274.32672967 690.9203058 272.90889702 689.24537543 271.47732378 687.5083999 C268.80556439 684.33875359 265.88446622 681.68718743 262.72732378 679.0083999 C260.52986874 677.10789825 258.40466447 675.14375098 256.28591753 673.15634912 C249.32712425 666.65405632 242.01250918 660.74475847 234.41482378 655.0083999 C233.76336382 654.51114404 233.11190386 654.01388819 232.44070268 653.50156397 C220.27114035 644.25701266 207.43054168 636.33376842 194.23074175 628.6490249 C191.84794095 627.26074492 189.47550845 625.85704373 187.10623003 624.4458999 C151.34062368 603.41080406 108.62988215 588.76010578 68.41482378 579.0083999 C67.71158983 578.83156671 67.00835588 578.65473352 66.28381182 578.47254175 C58.76594043 576.76103745 51.33683425 576.66008628 43.65701128 576.5943374 C42.25881699 576.57558607 40.86063354 576.55600985 39.46246172 576.5356521 C35.81629728 576.48474286 32.17009631 576.44489928 28.52377153 576.40750879 C24.78945018 576.36720779 21.05527531 576.31623577 17.32107378 576.2662124 C10.01909164 576.16994242 2.71703745 576.08538439 -4.58517622 576.0083999 C-4.58517622 575.3483999 -4.58517622 574.6883999 -4.58517622 574.0083999 C-253.73517622 574.0083999 -502.88517622 574.0083999 -759.58517622 574.0083999 C-759.58517622 459.8283999 -759.58517622 345.6483999 -759.58517622 228.0083999 C-510.43517622 228.0083999 -261.28517622 228.0083999 -4.58517622 228.0083999 C-4.58517622 227.3483999 -4.58517622 226.6883999 -4.58517622 226.0083999 C87.25696683 229.80012125 178.70627339 236.29542175 266.41482378 266.0083999 C267.59060991 266.40365869 268.76639604 266.79891748 269.97781206 267.20615381 C329.45700185 287.32904906 387.16335998 315.64773377 438.41482378 352.0083999 C439.61523306 352.8523086 440.81574831 353.69606659 442.01638628 354.5396499 C445.50328683 357.00087471 448.96071452 359.50145631 452.41482378 362.0083999 C453.15232866 362.54078272 453.88983354 363.07316553 454.64968706 363.62168115 C463.8664776 370.28378715 472.90480661 377.03404375 481.49685503 384.48886865 C484.32237211 386.92857216 487.1981707 389.28820516 490.10232378 391.6333999 C495.36748532 395.92183582 500.40064069 400.43126923 505.41482378 405.0083999 C507.08032353 406.50969546 508.74699322 408.00969413 510.41482378 409.5083999 C511.58996538 410.56813013 511.58996538 410.56813013 512.78884722 411.64926904 C514.40136669 413.09792799 516.01884077 414.54112265 517.64456011 415.97495264 C524.14793885 421.73916924 530.33553949 427.77483033 536.46584917 433.9290542 C538.10722174 435.57581394 539.75391197 437.21712086 541.4011519 438.85800928 C546.40879752 443.86254415 551.33145563 448.89721887 555.93166948 454.28452295 C557.80314629 456.45974891 559.76567853 458.5376449 561.73733354 460.62168115 C566.92747019 466.11805983 571.73715484 471.79739383 576.34622026 477.78745264 C579.36034578 481.69832496 582.49275385 485.46637486 585.72732378 489.1958999 C592.20106384 496.72010032 597.99507494 504.74219066 603.80593706 512.78232569 C605.21018189 514.72525502 606.62162173 516.66262993 608.03591753 518.59824365 C658.82235088 588.46050658 694.19615107 667.87383124 713.41482378 752.0083999 C713.56544267 752.66696985 713.71606157 753.3255398 713.87124468 754.00406641 C725.76595569 806.31481829 731.52239202 859.51241291 734.41482378 913.0083999 C734.46428148 913.87773157 734.51373918 914.74706323 734.5646956 915.64273828 C735.71503023 936.45496829 735.60222255 957.29607746 735.60012651 978.13291162 C735.60004552 982.28204476 735.60695954 986.43106685 735.62063432 990.58017725 C735.70344174 1016.13172226 735.32952209 1041.52283273 733.41482378 1067.0083999 C733.33912157 1068.03600427 733.26341936 1069.06360864 733.18542314 1070.12235254 C732.74864985 1075.92511735 732.23630214 1081.71744903 731.66482378 1087.5083999 C731.58212236 1088.35940271 731.49942095 1089.21040552 731.41421343 1090.08719629 C725.62437231 1149.13036177 714.03812409 1206.67552998 695.41482378 1263.0083999 C695.08772417 1264.00742334 694.76062456 1265.00644678 694.42361284 1266.03574365 C687.49299654 1287.08256506 678.80645145 1307.58272791 669.49441362 1327.67734522 C668.77438124 1329.23204201 668.05855929 1330.7886957 667.34695268 1332.34726709 C654.4780423 1360.53070994 638.61832581 1387.27196086 621.41482378 1413.0083999 C620.94866655 1413.70626611 620.48250932 1414.40413233 620.00222612 1415.123146 C606.39577842 1435.39817296 591.65897832 1454.86670069 575.77664018 1473.40830225 C574.4296507 1474.99097867 573.09781374 1476.58515504 571.77029253 1478.18418115 C565.21865087 1486.05700023 558.337659 1493.56765353 551.29910112 1501.00644678 C549.36294177 1503.06352201 547.44405981 1505.13562872 545.52810503 1507.2115249 C537.16344551 1516.24432769 528.50400313 1524.81453956 519.43679643 1533.13925928 C517.35495589 1535.06374264 515.29457493 1537.00898469 513.23904253 1538.9615249 C506.70215085 1545.16600624 500.15389493 1551.23292867 493.09841753 1556.8521499 C490.65375795 1558.81641786 488.26711103 1560.83601643 485.890898 1562.8821792 C478.33026003 1569.38100753 470.46325038 1575.43448952 462.49978472 1581.42929834 C460.59715452 1582.87030679 458.71056493 1584.3292703 456.82888628 1585.7974624 C377.93317684 1646.86962837 282.31228636 1688.91458303 112.16482378 1718.7583999 C111.41722795 1718.82360834 110.66963213 1718.88881677 109.89938188 1718.95600122 C96.50498454 1720.10479414 83.17646217 1720.15588897 69.74004961 1720.03002161 C67.16656281 1720.00609139 64.59306373 1719.98393653 62.01956011 1719.96189111 C46.77610381 1719.82964739 31.53300257 1719.66976135 16.28982378 1719.5083999 C0.49107378 1719.3433999 -15.30767622 1719.1783999 -31.58517622 1719.0083999 C-31.58517622 1753.6583999 -31.58517622 1788.3083999 -31.58517622 1824.0083999 C-7.29923872 1823.8227749 -7.29923872 1823.8227749 17.47732378 1823.6333999 C22.58209184 1823.59940088 27.68685991 1823.56540186 32.94631792 1823.53037256 C37.53799684 1823.49044594 37.53799684 1823.49044594 42.12965227 1823.44794458 C44.16848362 1823.43030517 46.20735021 1823.41647994 48.24622942 1823.40570825 C51.34172205 1823.38860372 54.4368856 1823.35924682 57.53225542 1823.32724756 C58.43453654 1823.32507541 59.33681766 1823.32290327 60.26644064 1823.3206653 C65.33615181 1823.25343367 69.54790333 1822.58318829 74.41482378 1821.0083999 C76.1115857 1820.67467099 77.81538084 1820.37427906 79.5249312 1820.11386865 C80.957203 1819.89161112 80.957203 1819.89161112 82.41840959 1819.66486353 C83.95384165 1819.43272653 83.95384165 1819.43272653 85.52029253 1819.1958999 C87.77948273 1818.84498668 90.03859384 1818.49356395 92.29763628 1818.14170069 C94.08089311 1817.86571039 94.08089311 1817.86571039 95.90017534 1817.58414453 C191.32606334 1802.7438583 286.52449751 1781.18035081 531.41482378 1653.0083999 C532.3558394 1652.25043115 533.29685503 1651.4924624 534.26638628 1650.7115249 C544.09801358 1642.72155689 553.78345633 1634.56695364 563.16091753 1626.0474624 C565.18365068 1624.21753744 567.22851813 1622.41958263 569.28982378 1620.6333999 C579.52990744 1611.69882492 589.38306004 1602.32187888 599.28103472 1593.01279444 C601.46075855 1590.96525065 603.64447186 1588.92203175 605.82888628 1586.87949365 C612.94944094 1580.21233713 620.01785086 1573.52409423 626.82498003 1566.53574365 C628.79290508 1564.61531 630.76423342 1562.83869355 632.85232378 1561.05918115 C638.65949529 1556.02067589 644.05346152 1550.55577991 649.48684526 1545.12168115 C651.33959846 1543.27111023 653.20021084 1541.42869914 655.06130815 1539.5865249 C661.97875701 1532.70187247 668.39640155 1525.7031649 674.41482378 1518.0083999 C675.4629229 1516.71845558 676.51342391 1515.43045616 677.56716753 1514.14511865 C678.49609215 1512.99581467 679.42449558 1511.84608921 680.35232378 1510.6958999 C680.800273 1510.14740381 681.24822222 1509.59890772 681.70974565 1509.03379053 C702.85014396 1482.77549662 721.00297852 1453.40098373 737.41482378 1424.0083999 C738.04066362 1422.88756006 738.66650347 1421.76672022 739.31130815 1420.61191553 C747.59346295 1405.68326661 755.3255587 1390.53857095 762.41482378 1375.0083999 C762.69690691 1374.39073755 762.97899004 1373.7730752 763.26962114 1373.1366958 C776.69352846 1343.694995 788.23220067 1313.73420226 798.41482378 1283.0083999 C798.8205562 1281.78411279 799.22628862 1280.55982569 799.64431597 1279.29843897 C828.32188988 1191.94668527 842.19544568 1100.46330759 795.41482378 645.0083999 C795.18428301 644.30475305 794.95374224 643.6011062 794.71621538 642.87613672 C769.97183343 567.54621999 736.2780025 491.2520351 683.86794878 430.8599624 C681.60430473 428.22865643 679.43508989 425.54893516 677.28982378 422.8208999 C673.87466488 418.51179349 670.25895197 414.42638491 666.55544878 410.36386865 C664.70798257 408.33098157 662.89775054 406.27458574 661.10232378 404.1958999 C651.31069616 392.99704815 640.95321344 382.38660629 630.42263628 371.88584131 C628.15063008 369.61923997 625.88407934 367.34728032 623.61794878 365.07480615 C622.14951961 363.60703719 620.68078058 362.13957815 619.21169878 360.6724624 C618.54692522 360.00566461 617.88215166 359.33886682 617.19723345 358.65186304 C613.30423117 354.77799385 609.30337498 351.08380117 605.14286638 347.4983291 C602.92398597 345.58519646 600.76458097 343.61010438 598.60232378 341.6333999 C594.2835672 337.73598543 589.83720327 334.03539635 585.31326128 330.37949365 C582.78563256 328.31174348 580.30109993 326.20232693 577.82717729 324.0708999 C571.28109356 318.44484411 564.49481764 313.22443458 557.55544878 308.0943374 C554.82676027 306.07408304 552.13173461 304.01959164 549.46169878 301.9224624 C538.39940307 293.25336118 526.83370476 285.47240671 515.08376909 277.76816553 C512.88648934 276.31939198 510.70350957 274.85471513 508.53201128 273.3677749 C487.35930855 258.8853314 464.94202849 246.23312356 442.41482378 234.0083999 C441.14300249 233.31158106 441.14300249 233.31158106 439.84548784 232.60068506 C426.41794088 225.25358913 412.57008263 218.83617252 398.65017534 212.48789209 C395.89633705 211.22859085 393.15002261 209.95510039 390.40701128 208.6724624 C313.31831472 172.89653812 229.56080466 150.60446281 9.19973589 129.99399561 C8.34517809 130.00075311 7.49062029 130.00751062 6.6101668 130.0144729 C5.00951082 130.02832976 3.40888619 130.04683434 1.80834795 130.07068628 C0.01046254 130.08720246 -1.7877768 130.05334495 -3.58517622 130.0083999 C-3.91517622 129.6783999 -4.24517622 129.3483999 -4.58517622 129.0083999 C-7.63899283 128.90672191 -10.67031796 128.87167792 -13.72468787 128.87778938 C-15.19115222 128.87483061 -15.19115222 128.87483061 -16.68724211 128.87181206 C-20.01358956 128.86634849 -23.3398961 128.86810251 -26.66624712 128.8697347 C-29.06524481 128.86729032 -31.46424209 128.86440737 -33.86323877 128.86112192 C-39.12167662 128.85494177 -44.38010276 128.85191159 -49.63854325 128.8515619 C-57.51062315 128.85101861 -65.38269121 128.8447376 -73.25476724 128.83729677 C-86.66791391 128.82478654 -100.08105963 128.8170325 -113.49421095 128.81181902 C-127.09571395 128.80651305 -140.69721316 128.79903995 -154.29871344 128.78889078 C-155.15631895 128.78825215 -156.01392446 128.78761351 -156.89751802 128.78695553 C-161.27009423 128.78368933 -165.64267041 128.78038758 -170.01524658 128.77707326 C-201.70228696 128.75312802 -233.38932878 128.73402712 -265.07637381 128.71747392 C-296.46690263 128.70106149 -327.85742914 128.6825889 -359.24795508 128.66134065 C-360.22200715 128.66068226 -361.19605923 128.66002386 -362.19962804 128.65934552 C-371.09579673 128.65333119 -379.99196541 128.64729139 -388.88813406 128.64122101 C-411.00525674 128.62612951 -433.12237962 128.61135768 -455.23950266 128.59680265 C-456.24678492 128.59613951 -457.25406719 128.59547638 -458.29187316 128.59479314 C-507.31745511 128.5625454 -556.34303911 128.53398022 -605.36862349 128.50571436 C-622.38642543 128.49590064 -639.40422736 128.48607066 -656.42202925 128.47617334 C-657.47744241 128.47555954 -658.53285558 128.47494575 -659.62025096 128.47431335 C-708.66293099 128.44576926 -757.70560925 128.41461301 -806.74828724 128.38278083 C-809.93128655 128.38071488 -813.11428585 128.37865007 -816.29728516 128.37658548 C-837.39078586 128.36290181 -858.48428653 128.34917306 -879.57778718 128.33541414 C-921.55037306 128.30803655 -963.52295911 128.28092381 -1005.49554527 128.25399296 C-1007.49449177 128.25271037 -1009.49343827 128.2514276 -1011.49238477 128.25014465 C-1101.50646806 128.1923737 -1191.52055311 128.13768416 -1281.53463911 128.08432764 C-1282.37768379 128.0838279 -1283.22072846 128.08332816 -1284.08931995 128.08281327 C-1296.51611049 128.07544761 -1308.94290104 128.06809482 -1321.3696916 128.06075281 C-1322.09929524 128.06032169 -1322.82889888 128.05989058 -1323.58061173 128.05944639 C-1352.58213316 128.04231136 -1381.5836547 128.02537287 -1410.58517622 128.0083999 C-1410.58517622 86.0983999 -1410.58517622 44.1883999 -1410.58517622 1.0083999 C-1346.2866619 0.96258174 -1346.2866619 0.96258174 -1321.52520918 0.9449386 C-1320.76108748 0.94439414 -1319.99696579 0.94384969 -1319.20968889 0.94328873 C-1306.72539495 0.93439336 -1294.24110102 0.92549814 -1281.75680708 0.91660303 C-1280.4963268 0.91570493 -1280.4963268 0.91570493 -1279.21038227 0.91478869 C-1189.1699948 0.85063457 -1099.12960731 0.78649607 -1009.0892198 0.72238916 C-1007.08919947 0.72096518 -1005.08917914 0.71954121 -1003.08915881 0.71811723 C-961.10828239 0.68822767 -919.12740597 0.65834031 -877.14652954 0.62845549 C-856.0581709 0.61344337 -834.96981226 0.59843083 -813.88145362 0.58341789 C-810.70035267 0.58115325 -807.51925172 0.57888862 -804.33815077 0.57662398 C-755.35321149 0.54175141 -706.36827222 0.50686978 -657.38333296 0.47196192 C-656.33009905 0.47121136 -655.27686515 0.4704608 -654.19171506 0.46968749 C-637.21044739 0.45758617 -620.22917972 0.44548409 -603.24791205 0.43338192 C-554.33709464 0.39852426 -505.42627722 0.36367221 -456.51545977 0.32885736 C-455.50966008 0.32814143 -454.50386039 0.32742549 -453.46758193 0.32668787 C-431.3879039 0.31097153 -409.30822588 0.29525809 -387.22854785 0.27954738 C-378.34444406 0.27322588 -369.46034027 0.26690397 -360.57623648 0.26058191 C-359.11774634 0.25954404 -359.11774634 0.25954404 -357.62979174 0.25848521 C-326.30069747 0.23619108 -294.97160323 0.21386309 -263.642509 0.19151733 C-232.08371525 0.16900789 -200.52492148 0.14653167 -168.96612768 0.1241016 C-164.60482545 0.12100185 -160.24352321 0.11790171 -155.88222098 0.11480135 C-155.02728298 0.1141936 -154.17234498 0.11358586 -153.29149977 0.1129597 C-139.75510213 0.10333616 -126.21870451 0.09367673 -112.68230691 0.08400231 C-99.37099315 0.07448949 -86.05967936 0.06501472 -72.74836555 0.05558035 C-64.94500068 0.05004859 -57.14163583 0.04448768 -49.33827102 0.03888343 C-43.5426046 0.03472435 -37.74693815 0.03062104 -31.95127168 0.0265393 C-29.62287917 0.02489088 -27.29448667 0.02322459 -24.96609419 0.02153816 C-23.87932114 0.02075192 -22.79254809 0.01996568 -21.67284252 0.01915562 C-20.62752254 0.0183983 -19.58220256 0.01764098 -18.50520621 0.01686071 C-15.58832686 0.01489603 -12.67144755 0.01337786 -9.75456791 0.01191938 C-6.5030373 0.01018576 -3.25152471 0.00635922 0 0 Z " fill="#000000" transform="translate(1810.5851762220263,390.99160009622574)"/>
<path d="M0 0 C73.7607327 -0.14091547 73.7607327 -0.14091547 96.62190247 -0.17955017 C97.43720369 -0.18093151 98.25250491 -0.18231284 99.09251224 -0.18373604 C126.6083118 -0.23022763 154.12411549 -0.26693325 181.63993835 -0.29640198 C182.53996925 -0.29736838 183.44000014 -0.29833478 184.36730469 -0.29933046 C203.94026408 -0.32029415 223.51322473 -0.33968351 243.08618726 -0.35745731 C252.68856197 -0.36618658 262.29093634 -0.37526274 271.89331055 -0.38452148 C273.32642957 -0.38589445 273.32642957 -0.38589445 274.78850049 -0.38729516 C305.60390117 -0.41697913 336.41921038 -0.46944753 367.23455593 -0.53408055 C398.97385809 -0.60052858 430.71310989 -0.64329435 462.45248042 -0.65740493 C466.96359717 -0.65942121 471.47471376 -0.66170064 475.98583031 -0.6641407 C476.87344503 -0.66461266 477.76105974 -0.66508462 478.67557188 -0.66557089 C492.80703552 -0.67375525 506.9383407 -0.70597919 521.06974041 -0.74782424 C535.37149929 -0.78963768 549.67310552 -0.80462902 563.97492305 -0.79450964 C571.68548065 -0.78974301 579.39562161 -0.79524648 587.10609245 -0.83443832 C662.47859893 -1.20266792 739.55279327 5.34491011 811.48486328 29.17138672 C813.63821788 29.88081067 815.79645559 30.56108527 817.96484375 31.22265625 C846.46208713 40.16611058 874.11393094 53.19711593 900 68 C900.85335937 68.48726562 901.70671875 68.97453125 902.5859375 69.4765625 C920.53028647 79.80146483 937.4233357 91.50386616 953.390625 104.67871094 C954.87382898 105.8964142 956.37370341 107.09373668 957.875 108.2890625 C963.78913688 113.01693355 969.37395518 118.02830273 974.87915039 123.22045898 C977.75727608 125.93387902 980.66497095 128.58193203 983.671875 131.15234375 C988.83626039 135.64473234 993.64529243 140.49553036 998.47290039 145.3425293 C1000.05959946 146.93458966 1001.65157742 148.5212299 1003.24414062 150.10742188 C1008.70607519 155.56546826 1014.01307754 161.09954469 1019 167 C1019.8884708 168.02157505 1020.77774682 169.04245056 1021.66796875 170.0625 C1032.76518104 183.00064518 1042.82973873 196.6330189 1052 211 C1052.63905273 211.99990967 1052.63905273 211.99990967 1053.29101562 213.02001953 C1065.2451652 231.85887377 1076.00790416 251.57460231 1085 272 C1085.41427246 272.9398877 1085.82854492 273.87977539 1086.25537109 274.84814453 C1098.59365153 303.20197892 1107.94340581 332.91203958 1115 363 C1115.25442871 364.06250977 1115.50885742 365.12501953 1115.77099609 366.21972656 C1123.21429383 397.62187451 1127.55038693 429.84422778 1130 462 C1130.10296387 463.27343262 1130.20592773 464.54686523 1130.31201172 465.85888672 C1133.63367671 508.30588212 1133.51854428 551.56860532 1130 594 C1129.89284668 595.30372559 1129.78569336 596.60745117 1129.67529297 597.95068359 C1122.90711751 677.36591265 1102.81034564 757.60095678 1059 825 C1058.3709375 825.98355469 1057.741875 826.96710937 1057.09375 827.98046875 C1046.80757237 843.78021193 1035.19331948 858.63936581 1023 873 C1022.44425293 873.65484375 1021.88850586 874.3096875 1021.31591797 874.984375 C1014.20944797 883.3277504 1006.89391418 891.45424777 999.41894531 899.46777344 C997.17192993 901.89417889 994.96628929 904.35804231 992.75 906.8125 C982.50872294 917.97134813 971.96474763 928.68305267 960 938 C958.83757423 938.94904991 957.67756909 939.90106959 956.51953125 940.85546875 C922.79543925 968.53242112 882.90502665 987.51163515 842 1002 C840.89156738 1002.39541992 839.78313477 1002.79083984 838.64111328 1003.19824219 C817.40815426 1010.70974768 795.85517367 1016.60697028 774 1022 C773.27508362 1022.17940125 772.55016724 1022.35880249 771.80328369 1022.54364014 C747.22703757 1028.60664823 722.39412042 1033.42809703 697.46815491 1037.81614685 C693.31541476 1038.55717662 689.1945477 1039.37973895 685.07392883 1040.28137207 C663.34690247 1044.81147227 641.81743509 1044.74354121 619.70586896 1044.70889878 C614.23231669 1044.70570635 608.75888449 1044.73103353 603.28538513 1044.75285339 C592.89477043 1044.79008396 582.50428598 1044.80242334 572.11361116 1044.8054778 C560.52211646 1044.81010941 548.93076136 1044.84307077 537.33932602 1044.87837565 C489.89292402 1045.02059245 442.44668517 1045 395 1045 C395 1192.84 395 1340.68 395 1493 C360.68 1493 326.36 1493 291 1493 C291 1345.16 291 1197.32 291 1045 C244.14 1045 197.28 1045 149 1045 C149 1300.42 149 1555.84 149 1819 C138.77 1819 128.54 1819 118 1819 C118 1563.58 118 1308.16 118 1045 C79.06 1045 40.12 1045 0 1045 C0 1192.51 0 1340.02 0 1492 C-34.65 1492 -69.3 1492 -105 1492 C-105 1344.49 -105 1196.98 -105 1045 C-133.38 1045 -161.76 1045 -191 1045 C-191 1034.77 -191 1024.54 -191 1014 C-162.62 1014 -134.24 1014 -105 1014 C-105 999.48 -105 984.96 -105 970 C-184.53 970 -264.06 970 -346 970 C-344.76661202 966.29983605 -343.36179556 965.45296966 -340.3125 963.0625 C-335.23873092 959.01533011 -330.29074199 954.85416922 -325.38793945 950.60180664 C-269.67926318 902.49920392 -178.60242523 937 -105 937 C-105 746.92 -105 556.84 -105 361 C-70.35 361 -35.7 361 0 361 C0 551.08 0 741.16 0 937 C21.45 937 42.9 937 65 937 C65 947.89 65 958.78 65 970 C43.55 970 22.1 970 0 970 C0 984.52 0 999.04 0 1014 C38.94 1014 77.88 1014 118 1014 C118 931.5 118 849 118 764 C128.23 764 138.46 764 149 764 C149 846.5 149 929 149 1014 C195.86 1014 242.72 1014 291 1014 C291 999.15 291 984.3 291 969 C256.68 969 222.36 969 187 969 C187 866.04 187 763.08 187 657 C147.73 657 108.46 657 68 657 C75.66152456 649.33847544 83.6326976 642.15750002 92.1015625 635.3984375 C96.15964799 632.0403991 100.06316874 628.49940557 104 625 C144.92 625 185.84 625 228 625 C228 727.96 228 830.92 228 937 C248.79 937 269.58 937 291 937 C291 747.58 291 558.16 291 363 C325.32 363 359.64 363 395 363 C395 548.46 395 733.92 395 925 C590.78405018 932.41529063 590.78405018 932.41529063 777 898 C777.97469238 897.66806641 778.94938477 897.33613281 779.95361328 896.99414062 C815.72974434 884.64477674 850.23140646 866.3977353 880 843 C880.63180176 842.5035498 881.26360352 842.00709961 881.91455078 841.49560547 C889.39350404 835.59228934 896.64988884 829.6723986 903.25390625 822.78125 C905 821 905 821 907.625 818.9375 C911.20702948 816.01531806 914.01071309 812.51391497 917 809 C917.90889243 807.96373391 918.81914495 806.92865977 919.73046875 805.89453125 C926.99575183 797.606541 933.67449442 789.02394689 940 780 C940.41459473 779.4117041 940.82918945 778.8234082 941.25634766 778.21728516 C960.2581415 751.06648579 973.96424703 721.13268979 985 690 C985.45947021 688.70666748 985.45947021 688.70666748 985.92822266 687.38720703 C1002.69512795 639.3503771 1009.14459803 587.29377839 1009.16796875 536.62890625 C1009.17120124 534.9295194 1009.17456659 533.2301328 1009.17805481 531.53074646 C1009.18397902 527.99550739 1009.18590184 524.4602925 1009.18530273 520.92504883 C1009.18522176 517.36607755 1009.1921308 513.80723577 1009.20581055 510.24829102 C1009.28586212 489.07540533 1009.05083297 468.09619601 1007 447 C1006.92429779 446.21513214 1006.84859558 445.43026428 1006.77059937 444.62161255 C1006.34911687 440.40129814 1005.83348 436.20074481 1005.25 432 C1005.08153564 430.77128174 1004.91307129 429.54256348 1004.73950195 428.27661133 C998.78830345 386.80378259 986.41604229 347.09109216 967 310 C966.63181152 309.29407715 966.26362305 308.5881543 965.88427734 307.86083984 C953.07326065 283.51286018 936.41050345 259.64302018 916.50390625 240.50390625 C914.91190589 238.91190589 913.49407324 237.23697553 912.0625 235.5 C909.39074061 232.33035369 906.46964244 229.67878753 903.3125 227 C901.11504496 225.09949834 898.98984069 223.13535107 896.87109375 221.14794922 C889.91230047 214.64565641 882.5976854 208.73635856 875 203 C874.02281006 202.25411621 874.02281006 202.25411621 873.02587891 201.49316406 C860.85631657 192.24861275 848.01571791 184.32536852 834.81591797 176.640625 C832.43311717 175.25234501 830.06068467 173.84864383 827.69140625 172.4375 C791.9257999 151.40240415 749.21505837 136.75170587 709 127 C708.29676605 126.82316681 707.5935321 126.64633362 706.86898804 126.46414185 C699.35111665 124.75263755 691.92201047 124.65168637 684.2421875 124.5859375 C682.84399321 124.56718617 681.44580976 124.54760995 680.04763794 124.5272522 C676.4014735 124.47634295 672.75527253 124.43649938 669.10894775 124.39910889 C665.3746264 124.35880789 661.64045153 124.30783587 657.90625 124.2578125 C650.60426786 124.16154252 643.30221367 124.07698449 636 124 C636 123.34 636 122.68 636 122 C426.12 122 216.24 122 0 122 C0 81.74 0 41.48 0 0 Z " fill="#000000" transform="translate(1170,843)"/>
<path d="M0 0 C34.65 0 69.3 0 105 0 C105 190.08 105 380.16 105 576 C126.45 576 147.9 576 170 576 C170 586.89 170 597.78 170 609 C148.55 609 127.1 609 105 609 C105 623.52 105 638.04 105 653 C143.94 653 182.88 653 223 653 C223 570.5 223 488 223 403 C233.23 403 243.46 403 254 403 C254 485.5 254 568 254 653 C355.64 653 457.28 653 562 653 C562 663.23 562 673.46 562 684 C541.54 684 521.08 684 500 684 C500 831.84 500 979.68 500 1132 C465.68 1132 431.36 1132 396 1132 C396 984.16 396 836.32 396 684 C349.14 684 302.28 684 254 684 C254 939.42 254 1194.84 254 1458 C243.77 1458 233.54 1458 223 1458 C223 1202.58 223 947.16 223 684 C184.06 684 145.12 684 105 684 C105 831.51 105 979.02 105 1131 C70.35 1131 35.7 1131 0 1131 C0 983.49 0 835.98 0 684 C-28.38 684 -56.76 684 -86 684 C-86 673.77 -86 663.54 -86 653 C-57.62 653 -29.24 653 0 653 C0 638.48 0 623.96 0 609 C-79.53 609 -159.06 609 -241 609 C-239.76661202 605.29983605 -238.36179556 604.45296966 -235.3125 602.0625 C-230.23873092 598.01533011 -225.29074199 593.85416922 -220.38793945 589.60180664 C-164.67926318 541.49920392 -73.60242523 576 0 576 C0 385.92 0 195.84 0 0 Z " fill="#FED901" transform="translate(1065,1204)"/>
<path d="M0 0 C34.65 0 69.3 0 105 0 C105 190.08 105 380.16 105 576 C126.45 576 147.9 576 170 576 C170 586.89 170 597.78 170 609 C148.55 609 127.1 609 105 609 C105 623.52 105 638.04 105 653 C70.35 653 35.7 653 0 653 C0 638.48 0 623.96 0 609 C-79.53 609 -159.06 609 -241 609 C-239.76661202 605.29983605 -238.36179556 604.45296966 -235.3125 602.0625 C-230.23873092 598.01533011 -225.29074199 593.85416922 -220.38793945 589.60180664 C-164.67926318 541.49920392 -73.60242523 576 0 576 C0 385.92 0 195.84 0 0 Z " fill="#000000" transform="translate(1065,1204)"/>
<path d="M0 0 C34.65 0 69.3 0 105 0 C105 147.51 105 295.02 105 447 C70.35 447 35.7 447 0 447 C0 299.49 0 151.98 0 0 Z " fill="#000000" transform="translate(1065,1888)"/>
<path d="M0 0 C34.32 0 68.64 0 104 0 C104 148.17 104 296.34 104 449 C69.68 449 35.36 449 0 449 C0 300.83 0 152.66 0 0 Z " fill="#000000" transform="translate(1461,1887)"/>
<path d="M0 0 C13.2 0 26.4 0 40 0 C40.23882393 86.20578173 40.46251397 172.41159173 40.59280396 258.61761475 C40.59570315 260.53096304 40.59570315 260.53096304 40.59866092 262.48296483 C40.63953975 289.52833263 40.67761315 316.57370383 40.71231549 343.61908022 C40.72975091 357.20502548 40.74774054 370.79096996 40.76625418 384.3769138 C40.76904366 386.4262922 40.77181732 388.47567062 40.77459032 390.52504904 C40.81742617 422.0797034 40.87214199 453.63428215 40.96130371 485.18884277 C40.96417859 486.20638966 40.96417859 486.20638966 40.96711154 487.24449305 C40.99808444 498.18162264 41.03005508 509.1187493 41.06215817 520.05587562 C41.19641347 565.80253946 41.2859589 611.54904841 41.31480986 657.29592707 C41.31884412 663.65881004 41.32340304 670.02169252 41.3282814 676.38457489 C41.32969729 678.26306278 41.32969729 678.26306278 41.33114177 680.17949992 C41.34769573 700.35099207 41.41265465 720.52205285 41.49564848 740.69336898 C41.57802421 760.96493967 41.60956346 781.23608207 41.58901928 801.50781432 C41.57835852 813.55686874 41.60686608 825.60435747 41.6911656 837.65312959 C41.74362611 845.69991528 41.74532103 853.74567463 41.70564539 861.79253091 C41.68448499 866.3795569 41.68548315 870.96362102 41.74836455 875.55033043 C42.11889632 904.19669746 42.11889632 904.19669746 36.912781 910.73920012 C33.61976735 913.95077304 30.09303808 915.94639616 26 918 C23.70174014 919.7953884 23.70174014 919.7953884 21.95703125 921.48046875 C1.61943586 939 1.61943586 939 0 939 C0 629.13 0 319.26 0 0 Z " fill="#000000" transform="translate(1358,1934)"/>
<path d="M0 0 C19.449375 -0.020625 38.89875 -0.04125 58.9375 -0.0625 C65.08882568 -0.071604 71.24015137 -0.08070801 77.57788086 -0.09008789 C85.06359863 -0.09460449 85.06359863 -0.09460449 88.56300354 -0.09544373 C91.01796143 -0.09698382 93.47291855 -0.10051006 95.9278717 -0.10557556 C99.63674239 -0.11284875 103.34556666 -0.11390756 107.05444336 -0.11352539 C108.70724635 -0.11892255 108.70724635 -0.11892255 110.39343929 -0.12442875 C111.38560735 -0.12305125 112.3777754 -0.12167376 113.40000916 -0.12025452 C114.26925994 -0.12117631 115.13851072 -0.1220981 116.03410244 -0.12304783 C118 0 118 0 119 1 C119.09793898 3.86994648 119.12992291 6.71583055 119.12025452 9.5861969 C119.12110894 10.4976835 119.12196337 11.4091701 119.12284368 12.34827751 C119.12450128 15.42694734 119.11897256 18.50556364 119.11352539 21.58422852 C119.11324355 23.7813924 119.11340118 25.97855638 119.1139679 28.17572021 C119.11425601 34.16101549 119.10835713 40.14629091 119.10139394 46.13158154 C119.09516261 52.3789747 119.09455678 58.62636826 119.09336853 64.87376404 C119.09060884 75.36628542 119.08435334 85.85880063 119.07543945 96.35131836 C119.06626601 107.16056278 119.05919631 117.96980521 119.05493164 128.77905273 C119.05466364 129.45168791 119.05439565 130.12432309 119.05411953 130.81734115 C119.0518068 136.66793426 119.04965395 142.51852742 119.04751682 148.3691206 C119.03810044 173.57942062 119.01818196 198.78970125 119 224 C79.73 224 40.46 224 0 224 C0 150.08 0 76.16 0 0 Z " fill="#0C0C0C" transform="translate(1051,741)"/>
<path d="M0 0 C211.86 0 423.72 0 642 0 C642 8.25 642 16.5 642 25 C430.14 25 218.28 25 0 25 C0 16.75 0 8.5 0 0 Z " fill="#FFD901" transform="translate(982,1860)"/>
<path d="M0 0 C10.23 0 20.46 0 31 0 C31 82.5 31 165 31 250 C20.77 250 10.54 250 0 250 C0 167.5 0 85 0 0 Z " fill="#FFD901" transform="translate(1288,1607)"/>
<path d="M0 0 C213.84 0 427.68 0 648 0 C648 10.23 648 20.46 648 31 C434.16 31 220.32 31 0 31 C0 20.77 0 10.54 0 0 Z M3 3 C3 11.25 3 19.5 3 28 C214.86 28 426.72 28 645 28 C645 19.75 645 11.5 645 3 C433.14 3 221.28 3 3 3 Z " fill="#EDE8D1" transform="translate(979,1857)"/>
<path d="M0 0 C63.03 0 126.06 0 191 0 C191 0.33 191 0.66 191 1 C175.41675161 1.17487471 159.83341813 1.340964 144.25 1.5 C142.50500717 1.51781588 142.50500717 1.51781588 140.72476196 1.53599167 C106.64937322 1.88150377 72.57719618 2.09460287 38.5 2.0625 C37.12685387 2.06121597 37.12685387 2.06121597 35.72596741 2.05990601 C24.817286 2.04891233 13.90864891 2.02856357 3 2 C3 10.91 3 19.82 3 29 C4.96445068 28.99476318 6.92890137 28.98952637 8.95288086 28.98413086 C18.61440906 28.96013301 28.2759472 28.94666276 37.9375 28.9375 C38.83342991 28.93664398 39.72935982 28.93578796 40.65243912 28.93490601 C74.99968062 28.90608149 109.34215232 29.15314042 143.6875 29.5 C144.87202129 29.51195782 146.05654259 29.52391563 147.27695847 29.53623581 C161.85138043 29.68398911 176.42572318 29.83858046 191 30 C191 30.33 191 30.66 191 31 C127.97 31 64.94 31 0 31 C0 20.77 0 10.54 0 0 Z " fill="#D2D2CE" transform="translate(979,1857)"/>
<path d="M0 0 C54.78 0 109.56 0 166 0 C166 10.23 166 20.46 166 31 C145.54 31 125.08 31 104 31 C104 30.34 104 29.68 104 29 C123.47 28.67 142.94 28.34 163 28 C163.33 19.09 163.66 10.18 164 1 C109.88 1 55.76 1 0 1 C0 0.67 0 0.34 0 0 Z " fill="#DCDCDC" transform="translate(1461,1857)"/>
</svg>
