<svg xmlns="http://www.w3.org/2000/svg" width="1230" height="1230" viewBox="0 0 1230 1230" version="1.1"><path d="M 491.250 597.639 C 490.274 598.051, 490 609.086, 490 648.024 C 490 686.812, 490.278 698.062, 491.250 698.691 C 491.938 699.136, 463.925 699.725, 429 700 L 365.500 700.500 364.942 704 C 364.635 705.925, 364.763 708.288, 365.227 709.250 C 366.024 710.903, 373.295 711, 497.035 711 L 628 711 628 705.500 L 628 700 564.950 700 C 510.622 700, 502.011 699.803, 502.700 698.572 C 503.140 697.787, 503.275 674.725, 503 647.322 L 502.500 597.500 497.500 597.306 C 494.750 597.199, 491.938 597.349, 491.250 597.639 M 490 920.981 L 490 1129.962 492.345 1130.551 C 493.635 1130.874, 496.448 1130.995, 498.595 1130.820 L 502.500 1130.500 502.752 921.250 L 503.005 712 496.502 712 L 490 712 490 920.981 M 561.487 854.500 C 561.486 933.150, 561.605 965.473, 561.750 926.328 C 561.895 887.184, 561.895 822.834, 561.750 783.328 C 561.605 743.823, 561.487 775.850, 561.487 854.500 M 519.490 917.500 C 519.490 1020.350, 519.607 1062.277, 519.750 1010.671 C 519.893 959.064, 519.893 874.914, 519.750 823.671 C 519.607 772.427, 519.490 814.650, 519.490 917.500 M 535.490 924 C 535.490 1030.425, 535.607 1073.963, 535.750 1020.750 C 535.893 967.538, 535.893 880.463, 535.750 827.250 C 535.607 774.038, 535.490 817.575, 535.490 924" stroke="none" fill="#ffd804" fill-rule="evenodd"/><path d="M 414.750 98.738 L 126 99.003 126 124.955 L 126 150.907 429.250 151.272 C 755.329 151.664, 742.226 151.463, 772.500 156.548 C 828.427 165.942, 880.435 187.065, 923.500 217.876 C 956.130 241.222, 984.280 270.443, 1002.453 299.833 C 1022.866 332.847, 1043.089 393.074, 1049.516 440 C 1053.280 467.474, 1053.584 498.135, 1050.430 532 C 1043.513 606.267, 1020.276 670.626, 983.456 717.500 C 974.117 729.389, 945.494 756.977, 925.653 773.214 C 883.209 807.947, 828.749 829.245, 747.347 842.945 C 731.621 845.591, 726.706 846, 710.597 846 L 692 846 692 824.468 L 692 802.936 722.750 803.078 C 754.149 803.224, 764.233 802.462, 783 798.522 C 850.027 784.452, 914.167 742.042, 954.712 684.984 C 983.905 643.902, 998.987 601.304, 1005.158 542.500 C 1006.754 527.294, 1006.751 475.806, 1005.154 458.500 C 998.981 391.619, 981.198 344.138, 945.417 299 C 934.976 285.828, 908.983 260.534, 895.500 250.425 C 856.590 221.252, 814.706 203.433, 768.538 196.412 C 737.033 191.620, 740.578 191.708, 561.750 191.299 L 393 190.914 393 262.457 L 393 334 545.250 334.069 C 628.987 334.106, 705.600 334.486, 715.500 334.912 C 733.478 335.686, 733.518 335.693, 748 340.531 C 755.975 343.196, 768.350 348.329, 775.501 351.940 C 816.928 372.857, 843.444 406.465, 851.928 448.812 C 857.844 478.334, 857.167 523.338, 850.400 550.500 C 834.607 613.892, 794.208 649.028, 723.366 660.986 C 712.516 662.818, 706.897 662.990, 657.750 662.995 L 604 663 604 547.500 L 604 432 501.500 432 L 399 432 399 550 L 399 668 356.963 668 L 314.925 668 307.463 674.228 C 303.358 677.653, 300 680.803, 300 681.228 C 300 681.652, 322.275 682, 349.500 682 L 399 682 399 691.020 L 399 700.039 420.750 699.770 L 442.500 699.500 442.789 690.750 L 443.078 682 456.039 682 L 469 682 469 675 L 469 668 456 668 L 443 668 443 572 L 443 476 502 476 L 561 476 561 572 L 561 668 548.500 668 L 536 668 536 604 L 536 540 510.250 540.013 L 484.500 540.026 477.517 545.963 C 473.676 549.229, 470.376 552.373, 470.183 552.950 C 469.945 553.664, 477.695 554, 494.417 554 L 519 554 519 617.500 L 519 681 540 681 L 561 681 561 690.500 L 561 700 595 700 L 629 700 629 706 L 629 712 671.183 712 L 713.367 712 732.433 708.452 C 788.304 698.056, 820.880 684.118, 844.502 660.500 C 879.557 625.451, 895.999 593.611, 903.403 546.433 C 907.998 517.160, 907.192 472.692, 901.526 442.822 C 895.442 410.750, 883.038 381.544, 866.148 359.522 C 854.410 344.219, 833.470 325.159, 817.500 315.244 C 791.661 299.202, 764.787 290.415, 726 285.327 C 713.769 283.723, 699.831 283.527, 577.750 283.250 L 443 282.945 443 262.902 L 443 242.859 589.250 243.283 C 743.291 243.730, 745.823 243.801, 771.500 248.393 C 799.988 253.488, 828.355 264.721, 853.500 280.865 C 900.191 310.841, 934.595 360.133, 946.423 414 C 964.494 496.296, 958.565 565.186, 928.049 627.500 C 909.631 665.110, 881.902 698.562, 854.457 716.282 C 832.401 730.522, 797.398 743.868, 768.568 749.030 C 751.844 752.024, 731.934 752.957, 684.250 752.979 L 641 753 641 824.500 L 641 896 685.506 896 C 727.467 896, 731.141 895.853, 749.756 893.437 C 797.616 887.225, 835.591 878.296, 866.717 865.938 C 914.373 847.016, 958.415 818.577, 993.564 784.031 C 1011.309 766.589, 1023.749 750.481, 1041.427 722.050 C 1071.628 673.482, 1082.510 645.709, 1093.364 589.500 C 1101.252 548.647, 1104 522.809, 1104 489.479 C 1104 405.891, 1080.437 326.817, 1035.916 261 C 999.041 206.488, 946.513 162.505, 886.657 136.025 C 838.823 114.864, 772.098 100.391, 715 98.793 C 708.675 98.616, 573.563 98.591, 414.750 98.738 M 399.247 854.250 L 399.500 996.500 420.750 996.770 L 442 997.040 442 854.520 L 442 712 420.497 712 L 398.993 712 399.247 854.250 M 562 854.500 L 562 997 583 997 L 604 997 604 854.500 L 604 712 583 712 L 562 712 562 854.500 M 519.784 923.793 C 519.628 1029.829, 519.725 1119.586, 520 1123.253 L 520.500 1129.922 527.750 1123.810 L 535 1117.698 535 924.349 L 535 731 527.534 731 L 520.068 731 519.784 923.793" stroke="none" fill="#040404" fill-rule="evenodd"/></svg>